<svg xmlns="http://www.w3.org/2000/svg" width="1000" height="1414" viewBox="0 0 1000 1414">
  <rect width="1000" height="1414" fill="#fff"/>
  
  <rect x="16" y="16" width="968" height="1382" rx="18" ry="18" fill="none" stroke="#222" stroke-width="3"/>
  <text x="40" y="60" font-family="Arial, sans-serif" font-size="28">Имя: ____________________________</text>
  <text x="600" y="60" font-family="Arial, sans-serif" font-size="28">Дата: _______________</text>
  <text x="40" y="110" font-family="Arial Black, Arial, sans-serif" font-size="38">Соедини по точкам</text>
  <g>
    <rect x="45" y="45" width="910" height="1324" fill="none" stroke="#ccc" rx="14"/>
    <path d="M 267.77196628771026 371.8539554067345 L 196.88605605385146 395.80152431574834 L 131.1705740793091 432.2327960610858 L 77.47820039191731 484.022649029511 L 60 517.0374895337013 L 68.63428027472273 549.0562707963994 L 140.78136916493466 569.142645323591 L 206.81248360944477 604.0998270266008 L 248.55906701236302 664.9719196188662 L 252.22291782001395 702.0081801628271 L 217.79381546136966 848.0647001346483 L 210.8270452001331 922.7616749443791 L 224.80174059743075 996.2613908665876 L 259.05252105300156 1062.7520271572935 L 311.2875093111585 1115.6491608349786 L 380.7380650621837 1144.0672273603736 L 602.5107941772367 1179.5530441711858 L 789.0271962605614 1196.936864281861 L 825.6249877274745 1190.206969814973 L 853.439581747358 1170.4306598549956 L 839.5805325197127 1136.4617159684108 L 807.8945081022971 1117.9689040191693 L 740.205225084542 1113.2239149388652 L 774.774370294677 1047.1594970918538 L 776.2401862667311 972.502047961852 L 762.7274111268937 937.6630770791792 L 773.2683540768448 920.6817949821552 L 841.3002893220109 890.5732748262958 L 915.4100817468661 881.9384280950992 L 940.0000000000002 854.9342714285867 L 935.2482900184507 818.8515070268816 L 907.648235037607 794.0681718045628 L 910.738467494934 775.4876697565336 L 934.6672352704986 748.021155105798 L 923.7956614198397 674.1779218175748 L 879.7220935303696 570.9998490880507 L 865.5464892277639 497.29581470626715 L 837.6761201901434 428.04898465237886 L 806.938492860467 412.77122146861547 L 795.7600466737968 506.7512703930886 L 778.8883279081335 433.6115224706019 L 756.556527533061 411.9080653799117 L 729.364814209621 437.0893281706713 L 700.0582150730966 505.39521370070423 L 701.6947550060286 579.9520572654185 L 654.0293748252757 636.5583432401602 L 589.5916765187512 666.7310588910716 L 589.7414949340243 591.8472826069714 L 576.825057754123 518.1317193013223 L 541.7163781898716 451.9451907907747 L 516.4654414314771 424.38578861652127 L 417.0736096938909 373.5886858402977 L 305.01706976420684 367.06313571813905" fill="none" stroke="#bbb" stroke-width="1.5" stroke-dasharray="6 8" />
    <circle cx="267.77196628771026" cy="371.8539554067345" r="6.5" fill="#000"/>
<circle cx="196.88605605385146" cy="395.80152431574834" r="6.5" fill="#000"/>
<circle cx="131.1705740793091" cy="432.2327960610858" r="6.5" fill="#000"/>
<circle cx="77.47820039191731" cy="484.022649029511" r="6.5" fill="#000"/>
<circle cx="60" cy="517.0374895337013" r="6.5" fill="#000"/>
<circle cx="68.63428027472273" cy="549.0562707963994" r="6.5" fill="#000"/>
<circle cx="140.78136916493466" cy="569.142645323591" r="6.5" fill="#000"/>
<circle cx="206.81248360944477" cy="604.0998270266008" r="6.5" fill="#000"/>
<circle cx="248.55906701236302" cy="664.9719196188662" r="6.5" fill="#000"/>
<circle cx="252.22291782001395" cy="702.0081801628271" r="6.5" fill="#000"/>
<circle cx="217.79381546136966" cy="848.0647001346483" r="6.5" fill="#000"/>
<circle cx="210.8270452001331" cy="922.7616749443791" r="6.5" fill="#000"/>
<circle cx="224.80174059743075" cy="996.2613908665876" r="6.5" fill="#000"/>
<circle cx="259.05252105300156" cy="1062.7520271572935" r="6.5" fill="#000"/>
<circle cx="311.2875093111585" cy="1115.6491608349786" r="6.5" fill="#000"/>
<circle cx="380.7380650621837" cy="1144.0672273603736" r="6.5" fill="#000"/>
<circle cx="602.5107941772367" cy="1179.5530441711858" r="6.5" fill="#000"/>
<circle cx="789.0271962605614" cy="1196.936864281861" r="6.5" fill="#000"/>
<circle cx="825.6249877274745" cy="1190.206969814973" r="6.5" fill="#000"/>
<circle cx="853.439581747358" cy="1170.4306598549956" r="6.5" fill="#000"/>
<circle cx="839.5805325197127" cy="1136.4617159684108" r="6.5" fill="#000"/>
<circle cx="807.8945081022971" cy="1117.9689040191693" r="6.5" fill="#000"/>
<circle cx="740.205225084542" cy="1113.2239149388652" r="6.5" fill="#000"/>
<circle cx="774.774370294677" cy="1047.1594970918538" r="6.5" fill="#000"/>
<circle cx="776.2401862667311" cy="972.502047961852" r="6.5" fill="#000"/>
<circle cx="762.7274111268937" cy="937.6630770791792" r="6.5" fill="#000"/>
<circle cx="773.2683540768448" cy="920.6817949821552" r="6.5" fill="#000"/>
<circle cx="841.3002893220109" cy="890.5732748262958" r="6.5" fill="#000"/>
<circle cx="915.4100817468661" cy="881.9384280950992" r="6.5" fill="#000"/>
<circle cx="940.0000000000002" cy="854.9342714285867" r="6.5" fill="#000"/>
<circle cx="935.2482900184507" cy="818.8515070268816" r="6.5" fill="#000"/>
<circle cx="907.648235037607" cy="794.0681718045628" r="6.5" fill="#000"/>
<circle cx="910.738467494934" cy="775.4876697565336" r="6.5" fill="#000"/>
<circle cx="934.6672352704986" cy="748.021155105798" r="6.5" fill="#000"/>
<circle cx="923.7956614198397" cy="674.1779218175748" r="6.5" fill="#000"/>
<circle cx="879.7220935303696" cy="570.9998490880507" r="6.5" fill="#000"/>
<circle cx="865.5464892277639" cy="497.29581470626715" r="6.5" fill="#000"/>
<circle cx="837.6761201901434" cy="428.04898465237886" r="6.5" fill="#000"/>
<circle cx="806.938492860467" cy="412.77122146861547" r="6.5" fill="#000"/>
<circle cx="795.7600466737968" cy="506.7512703930886" r="6.5" fill="#000"/>
<circle cx="778.8883279081335" cy="433.6115224706019" r="6.5" fill="#000"/>
<circle cx="756.556527533061" cy="411.9080653799117" r="6.5" fill="#000"/>
<circle cx="729.364814209621" cy="437.0893281706713" r="6.5" fill="#000"/>
<circle cx="700.0582150730966" cy="505.39521370070423" r="6.5" fill="#000"/>
<circle cx="701.6947550060286" cy="579.9520572654185" r="6.5" fill="#000"/>
<circle cx="654.0293748252757" cy="636.5583432401602" r="6.5" fill="#000"/>
<circle cx="589.5916765187512" cy="666.7310588910716" r="6.5" fill="#000"/>
<circle cx="589.7414949340243" cy="591.8472826069714" r="6.5" fill="#000"/>
<circle cx="576.825057754123" cy="518.1317193013223" r="6.5" fill="#000"/>
<circle cx="541.7163781898716" cy="451.9451907907747" r="6.5" fill="#000"/>
<circle cx="516.4654414314771" cy="424.38578861652127" r="6.5" fill="#000"/>
<circle cx="417.0736096938909" cy="373.5886858402977" r="6.5" fill="#000"/>
<circle cx="305.01706976420684" cy="367.06313571813905" r="6.5" fill="#000"/>
    <text x="277.77196628771026" y="359.8539554067345" font-family="Arial, sans-serif" font-size="16" fill="#111">1</text>
<text x="206.88605605385146" y="383.80152431574834" font-family="Arial, sans-serif" font-size="16" fill="#111">2</text>
<text x="141.1705740793091" y="420.2327960610858" font-family="Arial, sans-serif" font-size="16" fill="#111">3</text>
<text x="87.47820039191731" y="472.022649029511" font-family="Arial, sans-serif" font-size="16" fill="#111">4</text>
<text x="70" y="505.0374895337013" font-family="Arial, sans-serif" font-size="16" fill="#111">5</text>
<text x="78.63428027472273" y="537.0562707963994" font-family="Arial, sans-serif" font-size="16" fill="#111">6</text>
<text x="150.78136916493466" y="557.142645323591" font-family="Arial, sans-serif" font-size="16" fill="#111">7</text>
<text x="216.81248360944477" y="592.0998270266008" font-family="Arial, sans-serif" font-size="16" fill="#111">8</text>
<text x="258.559067012363" y="652.9719196188662" font-family="Arial, sans-serif" font-size="16" fill="#111">9</text>
<text x="262.22291782001395" y="690.0081801628271" font-family="Arial, sans-serif" font-size="16" fill="#111">10</text>
<text x="227.79381546136966" y="836.0647001346483" font-family="Arial, sans-serif" font-size="16" fill="#111">11</text>
<text x="220.8270452001331" y="910.7616749443791" font-family="Arial, sans-serif" font-size="16" fill="#111">12</text>
<text x="234.80174059743075" y="984.2613908665876" font-family="Arial, sans-serif" font-size="16" fill="#111">13</text>
<text x="269.05252105300156" y="1050.7520271572935" font-family="Arial, sans-serif" font-size="16" fill="#111">14</text>
<text x="321.2875093111585" y="1103.6491608349786" font-family="Arial, sans-serif" font-size="16" fill="#111">15</text>
<text x="390.7380650621837" y="1132.0672273603736" font-family="Arial, sans-serif" font-size="16" fill="#111">16</text>
<text x="612.5107941772367" y="1167.5530441711858" font-family="Arial, sans-serif" font-size="16" fill="#111">17</text>
<text x="799.0271962605614" y="1184.936864281861" font-family="Arial, sans-serif" font-size="16" fill="#111">18</text>
<text x="835.6249877274745" y="1178.206969814973" font-family="Arial, sans-serif" font-size="16" fill="#111">19</text>
<text x="863.439581747358" y="1158.4306598549956" font-family="Arial, sans-serif" font-size="16" fill="#111">20</text>
<text x="849.5805325197127" y="1124.4617159684108" font-family="Arial, sans-serif" font-size="16" fill="#111">21</text>
<text x="817.8945081022971" y="1105.9689040191693" font-family="Arial, sans-serif" font-size="16" fill="#111">22</text>
<text x="750.205225084542" y="1101.2239149388652" font-family="Arial, sans-serif" font-size="16" fill="#111">23</text>
<text x="784.774370294677" y="1035.1594970918538" font-family="Arial, sans-serif" font-size="16" fill="#111">24</text>
<text x="786.2401862667311" y="960.502047961852" font-family="Arial, sans-serif" font-size="16" fill="#111">25</text>
<text x="772.7274111268937" y="925.6630770791792" font-family="Arial, sans-serif" font-size="16" fill="#111">26</text>
<text x="783.2683540768448" y="908.6817949821552" font-family="Arial, sans-serif" font-size="16" fill="#111">27</text>
<text x="851.3002893220109" y="878.5732748262958" font-family="Arial, sans-serif" font-size="16" fill="#111">28</text>
<text x="925.4100817468661" y="869.9384280950992" font-family="Arial, sans-serif" font-size="16" fill="#111">29</text>
<text x="950.0000000000002" y="842.9342714285867" font-family="Arial, sans-serif" font-size="16" fill="#111">30</text>
<text x="945.2482900184507" y="806.8515070268816" font-family="Arial, sans-serif" font-size="16" fill="#111">31</text>
<text x="917.648235037607" y="782.0681718045628" font-family="Arial, sans-serif" font-size="16" fill="#111">32</text>
<text x="920.738467494934" y="763.4876697565336" font-family="Arial, sans-serif" font-size="16" fill="#111">33</text>
<text x="944.6672352704986" y="736.021155105798" font-family="Arial, sans-serif" font-size="16" fill="#111">34</text>
<text x="933.7956614198397" y="662.1779218175748" font-family="Arial, sans-serif" font-size="16" fill="#111">35</text>
<text x="889.7220935303696" y="558.9998490880507" font-family="Arial, sans-serif" font-size="16" fill="#111">36</text>
<text x="875.5464892277639" y="485.29581470626715" font-family="Arial, sans-serif" font-size="16" fill="#111">37</text>
<text x="847.6761201901434" y="416.04898465237886" font-family="Arial, sans-serif" font-size="16" fill="#111">38</text>
<text x="816.938492860467" y="400.77122146861547" font-family="Arial, sans-serif" font-size="16" fill="#111">39</text>
<text x="805.7600466737968" y="494.7512703930886" font-family="Arial, sans-serif" font-size="16" fill="#111">40</text>
<text x="788.8883279081335" y="421.6115224706019" font-family="Arial, sans-serif" font-size="16" fill="#111">41</text>
<text x="766.556527533061" y="399.9080653799117" font-family="Arial, sans-serif" font-size="16" fill="#111">42</text>
<text x="739.364814209621" y="425.0893281706713" font-family="Arial, sans-serif" font-size="16" fill="#111">43</text>
<text x="710.0582150730966" y="493.39521370070423" font-family="Arial, sans-serif" font-size="16" fill="#111">44</text>
<text x="711.6947550060286" y="567.9520572654185" font-family="Arial, sans-serif" font-size="16" fill="#111">45</text>
<text x="664.0293748252757" y="624.5583432401602" font-family="Arial, sans-serif" font-size="16" fill="#111">46</text>
<text x="599.5916765187512" y="654.7310588910716" font-family="Arial, sans-serif" font-size="16" fill="#111">47</text>
<text x="599.7414949340243" y="579.8472826069714" font-family="Arial, sans-serif" font-size="16" fill="#111">48</text>
<text x="586.825057754123" y="506.1317193013223" font-family="Arial, sans-serif" font-size="16" fill="#111">49</text>
<text x="551.7163781898716" y="439.9451907907747" font-family="Arial, sans-serif" font-size="16" fill="#111">50</text>
<text x="526.4654414314771" y="412.38578861652127" font-family="Arial, sans-serif" font-size="16" fill="#111">51</text>
<text x="427.0736096938909" y="361.5886858402977" font-family="Arial, sans-serif" font-size="16" fill="#111">52</text>
<text x="315.01706976420684" y="355.06313571813905" font-family="Arial, sans-serif" font-size="16" fill="#111">53</text>
  </g>
</svg>