<?xml version="1.0" encoding="UTF-8"?>
<svg viewBox="0 0 1000 700" xmlns="http://www.w3.org/2000/svg">
  <rect x="45" y="45" width="910" height="610" fill="none" stroke="#ccc" rx="14"/>
  <path d="M 305.7 566.0 L 326.5 563.0 L 345.3 567.4 L 357.6 578.4 L 418.1 579.8 L 472.2 555.8 L 508.6 519.8 L 537.1 480.7 L 593.3 462.1 L 642.4 449.7 L 663.2 408.8 L 680.4 403.1 L 654.9 442.6 L 658.1 485.4 L 699.3 517.6 L 698.4 545.5 L 681.5 578.2 L 706.5 567.3 L 727.5 569.6 L 754.4 588.1 L 815.1 573.7 L 874.7 557.0 L 902.1 518.8 L 922.3 477.7 L 863.2 471.5 L 898.0 450.2 L 940.0 426.8 L 878.1 432.8 L 859.6 408.4 L 920.3 392.2 L 902.3 355.7 L 926.3 317.1 L 870.5 296.9 L 830.5 330.7 L 818.0 373.0 L 787.4 358.7 L 771.1 338.0 L 734.3 370.5 L 728.3 331.0 L 697.5 340.4 L 661.8 343.0 L 652.5 313.5 L 618.2 350.3 L 571.3 380.6 L 512.9 400.6 L 449.9 413.0 L 414.7 435.2 L 428.8 473.4 L 436.3 501.7 L 413.9 516.8 L 393.1 534.2 L 335.6 536.9" fill="none" stroke="#bbb" stroke-width="1.5" stroke-dasharray="6 8" />
  <path d="M 86.1 351.2 L 135.4 380.0 L 194.8 399.1 L 259.5 409.0 L 325.5 413.3 L 391.9 412.6 L 457.8 406.7 L 520.9 393.0 L 576.9 369.6 L 582.9 342.5 L 593.2 318.9 L 641.5 305.2 L 590.1 283.3 L 651.3 272.0 L 640.6 229.1 L 603.0 193.4 L 585.6 151.7 L 546.8 116.7 L 490.7 130.2 L 445.1 144.5 L 408.6 174.9 L 392.6 137.3 L 330.5 141.5 L 348.3 168.9 L 362.9 148.1 L 329.2 173.9 L 309.1 138.6 L 286.0 177.0 L 258.4 146.3 L 208.9 129.4 L 151.9 111.9 L 119.2 149.5 L 101.5 191.7 L 74.1 231.3 L 60.0 273.8 L 112.2 287.6 L 62.4 313.3 L 118.8 321.1" fill="none" stroke="#bbb" stroke-width="1.5" stroke-dasharray="6 8" />
  <circle cx="305.7" cy="566.0" r="6.5" fill="#000"/>
  <circle cx="326.5" cy="563.0" r="6.5" fill="#000"/>
  <circle cx="345.3" cy="567.4" r="6.5" fill="#000"/>
  <circle cx="357.6" cy="578.4" r="6.5" fill="#000"/>
  <circle cx="418.1" cy="579.8" r="6.5" fill="#000"/>
  <circle cx="472.2" cy="555.8" r="6.5" fill="#000"/>
  <circle cx="508.6" cy="519.8" r="6.5" fill="#000"/>
  <circle cx="537.1" cy="480.7" r="6.5" fill="#000"/>
  <circle cx="593.3" cy="462.1" r="6.5" fill="#000"/>
  <circle cx="642.4" cy="449.7" r="6.5" fill="#000"/>
  <circle cx="663.2" cy="408.8" r="6.5" fill="#000"/>
  <circle cx="680.4" cy="403.1" r="6.5" fill="#000"/>
  <circle cx="654.9" cy="442.6" r="6.5" fill="#000"/>
  <circle cx="658.1" cy="485.4" r="6.5" fill="#000"/>
  <circle cx="699.3" cy="517.6" r="6.5" fill="#000"/>
  <circle cx="698.4" cy="545.5" r="6.5" fill="#000"/>
  <circle cx="681.5" cy="578.2" r="6.5" fill="#000"/>
  <circle cx="706.5" cy="567.3" r="6.5" fill="#000"/>
  <circle cx="727.5" cy="569.6" r="6.5" fill="#000"/>
  <circle cx="754.4" cy="588.1" r="6.5" fill="#000"/>
  <circle cx="815.1" cy="573.7" r="6.5" fill="#000"/>
  <circle cx="874.7" cy="557.0" r="6.5" fill="#000"/>
  <circle cx="902.1" cy="518.8" r="6.5" fill="#000"/>
  <circle cx="922.3" cy="477.7" r="6.5" fill="#000"/>
  <circle cx="863.2" cy="471.5" r="6.5" fill="#000"/>
  <circle cx="898.0" cy="450.2" r="6.5" fill="#000"/>
  <circle cx="940.0" cy="426.8" r="6.5" fill="#000"/>
  <circle cx="878.1" cy="432.8" r="6.5" fill="#000"/>
  <circle cx="859.6" cy="408.4" r="6.5" fill="#000"/>
  <circle cx="920.3" cy="392.2" r="6.5" fill="#000"/>
  <circle cx="902.3" cy="355.7" r="6.5" fill="#000"/>
  <circle cx="926.3" cy="317.1" r="6.5" fill="#000"/>
  <circle cx="870.5" cy="296.9" r="6.5" fill="#000"/>
  <circle cx="830.5" cy="330.7" r="6.5" fill="#000"/>
  <circle cx="818.0" cy="373.0" r="6.5" fill="#000"/>
  <circle cx="787.4" cy="358.7" r="6.5" fill="#000"/>
  <circle cx="771.1" cy="338.0" r="6.5" fill="#000"/>
  <circle cx="734.3" cy="370.5" r="6.5" fill="#000"/>
  <circle cx="728.3" cy="331.0" r="6.5" fill="#000"/>
  <circle cx="697.5" cy="340.4" r="6.5" fill="#000"/>
  <circle cx="661.8" cy="343.0" r="6.5" fill="#000"/>
  <circle cx="652.5" cy="313.5" r="6.5" fill="#000"/>
  <circle cx="618.2" cy="350.3" r="6.5" fill="#000"/>
  <circle cx="571.3" cy="380.6" r="6.5" fill="#000"/>
  <circle cx="512.9" cy="400.6" r="6.5" fill="#000"/>
  <circle cx="449.9" cy="413.0" r="6.5" fill="#000"/>
  <circle cx="414.7" cy="435.2" r="6.5" fill="#000"/>
  <circle cx="428.8" cy="473.4" r="6.5" fill="#000"/>
  <circle cx="436.3" cy="501.7" r="6.5" fill="#000"/>
  <circle cx="413.9" cy="516.8" r="6.5" fill="#000"/>
  <circle cx="393.1" cy="534.2" r="6.5" fill="#000"/>
  <circle cx="335.6" cy="536.9" r="6.5" fill="#000"/>
  <circle cx="86.1" cy="351.2" r="6.5" fill="#000"/>
  <circle cx="135.4" cy="380.0" r="6.5" fill="#000"/>
  <circle cx="194.8" cy="399.1" r="6.5" fill="#000"/>
  <circle cx="259.5" cy="409.0" r="6.5" fill="#000"/>
  <circle cx="325.5" cy="413.3" r="6.5" fill="#000"/>
  <circle cx="391.9" cy="412.6" r="6.5" fill="#000"/>
  <circle cx="457.8" cy="406.7" r="6.5" fill="#000"/>
  <circle cx="520.9" cy="393.0" r="6.5" fill="#000"/>
  <circle cx="576.9" cy="369.6" r="6.5" fill="#000"/>
  <circle cx="582.9" cy="342.5" r="6.5" fill="#000"/>
  <circle cx="593.2" cy="318.9" r="6.5" fill="#000"/>
  <circle cx="641.5" cy="305.2" r="6.5" fill="#000"/>
  <circle cx="590.1" cy="283.3" r="6.5" fill="#000"/>
  <circle cx="651.3" cy="272.0" r="6.5" fill="#000"/>
  <circle cx="640.6" cy="229.1" r="6.5" fill="#000"/>
  <circle cx="603.0" cy="193.4" r="6.5" fill="#000"/>
  <circle cx="585.6" cy="151.7" r="6.5" fill="#000"/>
  <circle cx="546.8" cy="116.7" r="6.5" fill="#000"/>
  <circle cx="490.7" cy="130.2" r="6.5" fill="#000"/>
  <circle cx="445.1" cy="144.5" r="6.5" fill="#000"/>
  <circle cx="408.6" cy="174.9" r="6.5" fill="#000"/>
  <circle cx="392.6" cy="137.3" r="6.5" fill="#000"/>
  <circle cx="330.5" cy="141.5" r="6.5" fill="#000"/>
  <circle cx="348.3" cy="168.9" r="6.5" fill="#000"/>
  <circle cx="362.9" cy="148.1" r="6.5" fill="#000"/>
  <circle cx="329.2" cy="173.9" r="6.5" fill="#000"/>
  <circle cx="309.1" cy="138.6" r="6.5" fill="#000"/>
  <circle cx="286.0" cy="177.0" r="6.5" fill="#000"/>
  <circle cx="258.4" cy="146.3" r="6.5" fill="#000"/>
  <circle cx="208.9" cy="129.4" r="6.5" fill="#000"/>
  <circle cx="151.9" cy="111.9" r="6.5" fill="#000"/>
  <circle cx="119.2" cy="149.5" r="6.5" fill="#000"/>
  <circle cx="101.5" cy="191.7" r="6.5" fill="#000"/>
  <circle cx="74.1" cy="231.3" r="6.5" fill="#000"/>
  <circle cx="60.0" cy="273.8" r="6.5" fill="#000"/>
  <circle cx="112.2" cy="287.6" r="6.5" fill="#000"/>
  <circle cx="62.4" cy="313.3" r="6.5" fill="#000"/>
  <circle cx="118.8" cy="321.1" r="6.5" fill="#000"/>
  <text x="315.7" y="554.0" font-family="Arial, sans-serif" font-size="16" fill="#111">1</text>
  <text x="310.5" y="551.0" font-family="Arial, sans-serif" font-size="16" fill="#111">2</text>
  <text x="355.3" y="587.4" font-family="Arial, sans-serif" font-size="16" fill="#111">3</text>
  <text x="341.6" y="598.4" font-family="Arial, sans-serif" font-size="16" fill="#111">4</text>
  <text x="418.1" y="559.8" font-family="Arial, sans-serif" font-size="16" fill="#111">5</text>
  <text x="486.2" y="571.8" font-family="Arial, sans-serif" font-size="16" fill="#111">6</text>
  <text x="494.6" y="535.8" font-family="Arial, sans-serif" font-size="16" fill="#111">7</text>
  <text x="537.1" y="502.7" font-family="Arial, sans-serif" font-size="16" fill="#111">8</text>
  <text x="603.3" y="450.1" font-family="Arial, sans-serif" font-size="16" fill="#111">9</text>
  <text x="626.4" y="437.7" font-family="Arial, sans-serif" font-size="16" fill="#111">10</text>
  <text x="673.2" y="428.8" font-family="Arial, sans-serif" font-size="16" fill="#111">11</text>
  <text x="664.4" y="423.1" font-family="Arial, sans-serif" font-size="16" fill="#111">12</text>
  <text x="654.9" y="422.6" font-family="Arial, sans-serif" font-size="16" fill="#111">13</text>
  <text x="672.1" y="501.4" font-family="Arial, sans-serif" font-size="16" fill="#111">14</text>
  <text x="685.3" y="533.6" font-family="Arial, sans-serif" font-size="16" fill="#111">15</text>
  <text x="698.4" y="567.5" font-family="Arial, sans-serif" font-size="16" fill="#111">16</text>
  <text x="691.5" y="566.2" font-family="Arial, sans-serif" font-size="16" fill="#111">17</text>
  <text x="690.5" y="555.3" font-family="Arial, sans-serif" font-size="16" fill="#111">18</text>
  <text x="737.5" y="589.6" font-family="Arial, sans-serif" font-size="16" fill="#111">19</text>
  <text x="738.4" y="608.1" font-family="Arial, sans-serif" font-size="16" fill="#111">20</text>
  <text x="815.1" y="553.7" font-family="Arial, sans-serif" font-size="16" fill="#111">21</text>
  <text x="888.7" y="573.0" font-family="Arial, sans-serif" font-size="16" fill="#111">22</text>
  <text x="888.1" y="534.8" font-family="Arial, sans-serif" font-size="16" fill="#111">23</text>
  <text x="922.3" y="499.7" font-family="Arial, sans-serif" font-size="16" fill="#111">24</text>
  <text x="873.2" y="459.5" font-family="Arial, sans-serif" font-size="16" fill="#111">25</text>
  <text x="882.0" y="438.2" font-family="Arial, sans-serif" font-size="16" fill="#111">26</text>
  <text x="950.0" y="446.8" font-family="Arial, sans-serif" font-size="16" fill="#111">27</text>
  <text x="862.1" y="452.8" font-family="Arial, sans-serif" font-size="16" fill="#111">28</text>
  <text x="859.6" y="388.4" font-family="Arial, sans-serif" font-size="16" fill="#111">29</text>
  <text x="934.3" y="408.2" font-family="Arial, sans-serif" font-size="16" fill="#111">30</text>
  <text x="888.3" y="371.7" font-family="Arial, sans-serif" font-size="16" fill="#111">31</text>
  <text x="926.3" y="339.1" font-family="Arial, sans-serif" font-size="16" fill="#111">32</text>
  <text x="880.5" y="284.9" font-family="Arial, sans-serif" font-size="16" fill="#111">33</text>
  <text x="814.5" y="318.7" font-family="Arial, sans-serif" font-size="16" fill="#111">34</text>
  <text x="828.0" y="393.0" font-family="Arial, sans-serif" font-size="16" fill="#111">35</text>
  <text x="771.4" y="378.7" font-family="Arial, sans-serif" font-size="16" fill="#111">36</text>
  <text x="771.1" y="318.0" font-family="Arial, sans-serif" font-size="16" fill="#111">37</text>
  <text x="748.3" y="386.5" font-family="Arial, sans-serif" font-size="16" fill="#111">38</text>
  <text x="714.3" y="347.0" font-family="Arial, sans-serif" font-size="16" fill="#111">39</text>
  <text x="697.5" y="362.4" font-family="Arial, sans-serif" font-size="16" fill="#111">40</text>
  <text x="671.8" y="331.0" font-family="Arial, sans-serif" font-size="16" fill="#111">41</text>
  <text x="636.5" y="301.5" font-family="Arial, sans-serif" font-size="16" fill="#111">42</text>
  <text x="628.2" y="370.3" font-family="Arial, sans-serif" font-size="16" fill="#111">43</text>
  <text x="555.3" y="400.6" font-family="Arial, sans-serif" font-size="16" fill="#111">44</text>
  <text x="512.9" y="380.6" font-family="Arial, sans-serif" font-size="16" fill="#111">45</text>
  <text x="463.9" y="429.0" font-family="Arial, sans-serif" font-size="16" fill="#111">46</text>
  <text x="400.7" y="451.2" font-family="Arial, sans-serif" font-size="16" fill="#111">47</text>
  <text x="428.8" y="495.4" font-family="Arial, sans-serif" font-size="16" fill="#111">48</text>
  <text x="446.3" y="489.7" font-family="Arial, sans-serif" font-size="16" fill="#111">49</text>
  <text x="397.9" y="504.8" font-family="Arial, sans-serif" font-size="16" fill="#111">50</text>
  <text x="403.1" y="554.2" font-family="Arial, sans-serif" font-size="16" fill="#111">51</text>
  <text x="319.6" y="556.9" font-family="Arial, sans-serif" font-size="16" fill="#111">52</text>
  <text x="96.1" y="339.2" font-family="Arial, sans-serif" font-size="16" fill="#111">53</text>
  <text x="119.4" y="368.0" font-family="Arial, sans-serif" font-size="16" fill="#111">54</text>
  <text x="204.8" y="419.1" font-family="Arial, sans-serif" font-size="16" fill="#111">55</text>
  <text x="243.5" y="429.0" font-family="Arial, sans-serif" font-size="16" fill="#111">56</text>
  <text x="325.5" y="393.3" font-family="Arial, sans-serif" font-size="16" fill="#111">57</text>
  <text x="405.9" y="428.6" font-family="Arial, sans-serif" font-size="16" fill="#111">58</text>
  <text x="443.8" y="422.7" font-family="Arial, sans-serif" font-size="16" fill="#111">59</text>
  <text x="520.9" y="415.0" font-family="Arial, sans-serif" font-size="16" fill="#111">60</text>
  <text x="586.9" y="357.6" font-family="Arial, sans-serif" font-size="16" fill="#111">61</text>
  <text x="566.9" y="330.5" font-family="Arial, sans-serif" font-size="16" fill="#111">62</text>
  <text x="603.2" y="338.9" font-family="Arial, sans-serif" font-size="16" fill="#111">63</text>
  <text x="625.5" y="325.2" font-family="Arial, sans-serif" font-size="16" fill="#111">64</text>
  <text x="590.1" y="263.3" font-family="Arial, sans-serif" font-size="16" fill="#111">65</text>
  <text x="665.3" y="288.0" font-family="Arial, sans-serif" font-size="16" fill="#111">66</text>
  <text x="626.6" y="245.1" font-family="Arial, sans-serif" font-size="16" fill="#111">67</text>
  <text x="603.0" y="215.4" font-family="Arial, sans-serif" font-size="16" fill="#111">68</text>
  <text x="595.6" y="139.7" font-family="Arial, sans-serif" font-size="16" fill="#111">69</text>
  <text x="530.8" y="104.7" font-family="Arial, sans-serif" font-size="16" fill="#111">70</text>
  <text x="500.7" y="150.2" font-family="Arial, sans-serif" font-size="16" fill="#111">71</text>
  <text x="429.1" y="164.5" font-family="Arial, sans-serif" font-size="16" fill="#111">72</text>
  <text x="408.6" y="154.9" font-family="Arial, sans-serif" font-size="16" fill="#111">73</text>
  <text x="406.6" y="153.3" font-family="Arial, sans-serif" font-size="16" fill="#111">74</text>
  <text x="316.5" y="157.5" font-family="Arial, sans-serif" font-size="16" fill="#111">75</text>
  <text x="348.3" y="190.9" font-family="Arial, sans-serif" font-size="16" fill="#111">76</text>
  <text x="372.9" y="136.1" font-family="Arial, sans-serif" font-size="16" fill="#111">77</text>
  <text x="313.2" y="161.9" font-family="Arial, sans-serif" font-size="16" fill="#111">78</text>
  <text x="319.1" y="158.6" font-family="Arial, sans-serif" font-size="16" fill="#111">79</text>
  <text x="270.0" y="197.0" font-family="Arial, sans-serif" font-size="16" fill="#111">80</text>
  <text x="258.4" y="126.3" font-family="Arial, sans-serif" font-size="16" fill="#111">81</text>
  <text x="222.9" y="145.4" font-family="Arial, sans-serif" font-size="16" fill="#111">82</text>
  <text x="137.9" y="127.9" font-family="Arial, sans-serif" font-size="16" fill="#111">83</text>
  <text x="119.2" y="171.5" font-family="Arial, sans-serif" font-size="16" fill="#111">84</text>
  <text x="111.5" y="179.7" font-family="Arial, sans-serif" font-size="16" fill="#111">85</text>
  <text x="58.1" y="219.3" font-family="Arial, sans-serif" font-size="16" fill="#111">86</text>
  <text x="70.0" y="293.8" font-family="Arial, sans-serif" font-size="16" fill="#111">87</text>
  <text x="96.2" y="307.6" font-family="Arial, sans-serif" font-size="16" fill="#111">88</text>
  <text x="62.4" y="293.3" font-family="Arial, sans-serif" font-size="16" fill="#111">89</text>
  <text x="132.8" y="337.1" font-family="Arial, sans-serif" font-size="16" fill="#111">90</text>
</svg>