<?xml version="1.0" encoding="UTF-8"?>
<svg viewBox="0 0 1000 700" xmlns="http://www.w3.org/2000/svg">
  <rect x="45" y="45" width="910" height="610" fill="none" stroke="#ccc" rx="14"/>
  <path d="M 303.6 557.3 L 320.8 564.4 L 325.0 575.3 L 346.6 569.9 L 351.7 572.3 L 386.7 588.6 L 432.0 579.3 L 470.6 560.6 L 500.3 535.7 L 522.4 507.4 L 544.6 479.3 L 585.3 464.4 L 633.3 464.1 L 649.7 439.1 L 667.8 409.8 L 695.2 394.8 L 670.9 422.1 L 657.7 452.6 L 662.0 484.0 L 686.2 510.6 L 723.4 530.8 L 698.7 550.4 L 679.1 576.0 L 706.5 568.0 L 712.6 583.4 L 734.6 569.7 L 749.4 590.2 L 795.1 584.7 L 840.2 573.9 L 882.4 559.4 L 906.7 532.5 L 916.7 501.5 L 918.7 479.3 L 871.7 475.2 L 884.5 453.8 L 931.7 448.3 L 940.0 427.1 L 893.4 434.9 L 853.6 422.8 L 886.7 405.4 L 929.7 391.7 L 915.6 364.1 L 922.3 335.0 L 921.6 309.3 L 878.0 297.5 L 849.2 322.8 L 834.9 351.2 L 817.9 380.4 L 792.1 363.8 L 792.7 333.3 L 767.1 354.5 L 734.3 369.0 L 730.5 338.6 L 715.2 325.0 L 693.3 353.2 L 666.3 342.4 L 671.4 314.0 L 639.9 333.6 L 612.1 359.5 L 576.7 381.0 L 534.7 396.7 L 489.6 407.8 L 442.9 415.9 L 416.3 432.1 L 418.2 463.8 L 449.6 484.7 L 433.7 504.8 L 406.6 514.4 L 424.0 539.8 L 380.5 531.3 L 337.6 540.1" fill="none" stroke="#bbb" stroke-width="1.5" stroke-dasharray="6 8" />
  <path d="M 85.6 352.5 L 119.7 375.1 L 161.1 391.8 L 206.6 403.2 L 254.4 409.4 L 302.4 414.2 L 351.1 414.9 L 399.7 413.5 L 447.9 409.2 L 494.8 400.7 L 540.0 388.9 L 580.3 370.9 L 601.3 349.0 L 567.6 328.6 L 608.9 318.5 L 646.1 308.7 L 603.5 296.0 L 614.1 274.1 L 656.3 267.0 L 649.3 235.4 L 626.5 207.2 L 601.0 181.2 L 589.3 150.2 L 563.3 123.3 L 522.3 112.9 L 486.3 134.1 L 452.6 144.5 L 429.5 167.9 L 401.2 159.1 L 386.7 135.6 L 362.6 153.9 L 334.7 175.6 L 323.3 145.8 L 301.8 150.3 L 280.7 176.7 L 261.8 151.1 L 226.4 143.2 L 194.5 119.1 L 150.1 109.8 L 124.4 136.7 L 108.0 166.9 L 96.9 198.1 L 74.9 226.7 L 60.0 257.1 L 82.0 272.0 L 106.9 290.9 L 66.8 308.8 L 90.8 317.9 L 119.3 333.0" fill="none" stroke="#bbb" stroke-width="1.5" stroke-dasharray="6 8" />
  <circle cx="303.6" cy="557.3" r="6.5" fill="#000"/>
  <circle cx="320.8" cy="564.4" r="6.5" fill="#000"/>
  <circle cx="325.0" cy="575.3" r="6.5" fill="#000"/>
  <circle cx="346.6" cy="569.9" r="6.5" fill="#000"/>
  <circle cx="351.7" cy="572.3" r="6.5" fill="#000"/>
  <circle cx="386.7" cy="588.6" r="6.5" fill="#000"/>
  <circle cx="432.0" cy="579.3" r="6.5" fill="#000"/>
  <circle cx="470.6" cy="560.6" r="6.5" fill="#000"/>
  <circle cx="500.3" cy="535.7" r="6.5" fill="#000"/>
  <circle cx="522.4" cy="507.4" r="6.5" fill="#000"/>
  <circle cx="544.6" cy="479.3" r="6.5" fill="#000"/>
  <circle cx="585.3" cy="464.4" r="6.5" fill="#000"/>
  <circle cx="633.3" cy="464.1" r="6.5" fill="#000"/>
  <circle cx="649.7" cy="439.1" r="6.5" fill="#000"/>
  <circle cx="667.8" cy="409.8" r="6.5" fill="#000"/>
  <circle cx="695.2" cy="394.8" r="6.5" fill="#000"/>
  <circle cx="670.9" cy="422.1" r="6.5" fill="#000"/>
  <circle cx="657.7" cy="452.6" r="6.5" fill="#000"/>
  <circle cx="662.0" cy="484.0" r="6.5" fill="#000"/>
  <circle cx="686.2" cy="510.6" r="6.5" fill="#000"/>
  <circle cx="723.4" cy="530.8" r="6.5" fill="#000"/>
  <circle cx="698.7" cy="550.4" r="6.5" fill="#000"/>
  <circle cx="679.1" cy="576.0" r="6.5" fill="#000"/>
  <circle cx="706.5" cy="568.0" r="6.5" fill="#000"/>
  <circle cx="712.6" cy="583.4" r="6.5" fill="#000"/>
  <circle cx="734.6" cy="569.7" r="6.5" fill="#000"/>
  <circle cx="749.4" cy="590.2" r="6.5" fill="#000"/>
  <circle cx="795.1" cy="584.7" r="6.5" fill="#000"/>
  <circle cx="840.2" cy="573.9" r="6.5" fill="#000"/>
  <circle cx="882.4" cy="559.4" r="6.5" fill="#000"/>
  <circle cx="906.7" cy="532.5" r="6.5" fill="#000"/>
  <circle cx="916.7" cy="501.5" r="6.5" fill="#000"/>
  <circle cx="918.7" cy="479.3" r="6.5" fill="#000"/>
  <circle cx="871.7" cy="475.2" r="6.5" fill="#000"/>
  <circle cx="884.5" cy="453.8" r="6.5" fill="#000"/>
  <circle cx="931.7" cy="448.3" r="6.5" fill="#000"/>
  <circle cx="940.0" cy="427.1" r="6.5" fill="#000"/>
  <circle cx="893.4" cy="434.9" r="6.5" fill="#000"/>
  <circle cx="853.6" cy="422.8" r="6.5" fill="#000"/>
  <circle cx="886.7" cy="405.4" r="6.5" fill="#000"/>
  <circle cx="929.7" cy="391.7" r="6.5" fill="#000"/>
  <circle cx="915.6" cy="364.1" r="6.5" fill="#000"/>
  <circle cx="922.3" cy="335.0" r="6.5" fill="#000"/>
  <circle cx="921.6" cy="309.3" r="6.5" fill="#000"/>
  <circle cx="878.0" cy="297.5" r="6.5" fill="#000"/>
  <circle cx="849.2" cy="322.8" r="6.5" fill="#000"/>
  <circle cx="834.9" cy="351.2" r="6.5" fill="#000"/>
  <circle cx="817.9" cy="380.4" r="6.5" fill="#000"/>
  <circle cx="792.1" cy="363.8" r="6.5" fill="#000"/>
  <circle cx="792.7" cy="333.3" r="6.5" fill="#000"/>
  <circle cx="767.1" cy="354.5" r="6.5" fill="#000"/>
  <circle cx="734.3" cy="369.0" r="6.5" fill="#000"/>
  <circle cx="730.5" cy="338.6" r="6.5" fill="#000"/>
  <circle cx="715.2" cy="325.0" r="6.5" fill="#000"/>
  <circle cx="693.3" cy="353.2" r="6.5" fill="#000"/>
  <circle cx="666.3" cy="342.4" r="6.5" fill="#000"/>
  <circle cx="671.4" cy="314.0" r="6.5" fill="#000"/>
  <circle cx="639.9" cy="333.6" r="6.5" fill="#000"/>
  <circle cx="612.1" cy="359.5" r="6.5" fill="#000"/>
  <circle cx="576.7" cy="381.0" r="6.5" fill="#000"/>
  <circle cx="534.7" cy="396.7" r="6.5" fill="#000"/>
  <circle cx="489.6" cy="407.8" r="6.5" fill="#000"/>
  <circle cx="442.9" cy="415.9" r="6.5" fill="#000"/>
  <circle cx="416.3" cy="432.1" r="6.5" fill="#000"/>
  <circle cx="418.2" cy="463.8" r="6.5" fill="#000"/>
  <circle cx="449.6" cy="484.7" r="6.5" fill="#000"/>
  <circle cx="433.7" cy="504.8" r="6.5" fill="#000"/>
  <circle cx="406.6" cy="514.4" r="6.5" fill="#000"/>
  <circle cx="424.0" cy="539.8" r="6.5" fill="#000"/>
  <circle cx="380.5" cy="531.3" r="6.5" fill="#000"/>
  <circle cx="337.6" cy="540.1" r="6.5" fill="#000"/>
  <circle cx="85.6" cy="352.5" r="6.5" fill="#000"/>
  <circle cx="119.7" cy="375.1" r="6.5" fill="#000"/>
  <circle cx="161.1" cy="391.8" r="6.5" fill="#000"/>
  <circle cx="206.6" cy="403.2" r="6.5" fill="#000"/>
  <circle cx="254.4" cy="409.4" r="6.5" fill="#000"/>
  <circle cx="302.4" cy="414.2" r="6.5" fill="#000"/>
  <circle cx="351.1" cy="414.9" r="6.5" fill="#000"/>
  <circle cx="399.7" cy="413.5" r="6.5" fill="#000"/>
  <circle cx="447.9" cy="409.2" r="6.5" fill="#000"/>
  <circle cx="494.8" cy="400.7" r="6.5" fill="#000"/>
  <circle cx="540.0" cy="388.9" r="6.5" fill="#000"/>
  <circle cx="580.3" cy="370.9" r="6.5" fill="#000"/>
  <circle cx="601.3" cy="349.0" r="6.5" fill="#000"/>
  <circle cx="567.6" cy="328.6" r="6.5" fill="#000"/>
  <circle cx="608.9" cy="318.5" r="6.5" fill="#000"/>
  <circle cx="646.1" cy="308.7" r="6.5" fill="#000"/>
  <circle cx="603.5" cy="296.0" r="6.5" fill="#000"/>
  <circle cx="614.1" cy="274.1" r="6.5" fill="#000"/>
  <circle cx="656.3" cy="267.0" r="6.5" fill="#000"/>
  <circle cx="649.3" cy="235.4" r="6.5" fill="#000"/>
  <circle cx="626.5" cy="207.2" r="6.5" fill="#000"/>
  <circle cx="601.0" cy="181.2" r="6.5" fill="#000"/>
  <circle cx="589.3" cy="150.2" r="6.5" fill="#000"/>
  <circle cx="563.3" cy="123.3" r="6.5" fill="#000"/>
  <circle cx="522.3" cy="112.9" r="6.5" fill="#000"/>
  <circle cx="486.3" cy="134.1" r="6.5" fill="#000"/>
  <circle cx="452.6" cy="144.5" r="6.5" fill="#000"/>
  <circle cx="429.5" cy="167.9" r="6.5" fill="#000"/>
  <circle cx="401.2" cy="159.1" r="6.5" fill="#000"/>
  <circle cx="386.7" cy="135.6" r="6.5" fill="#000"/>
  <circle cx="362.6" cy="153.9" r="6.5" fill="#000"/>
  <circle cx="334.7" cy="175.6" r="6.5" fill="#000"/>
  <circle cx="323.3" cy="145.8" r="6.5" fill="#000"/>
  <circle cx="301.8" cy="150.3" r="6.5" fill="#000"/>
  <circle cx="280.7" cy="176.7" r="6.5" fill="#000"/>
  <circle cx="261.8" cy="151.1" r="6.5" fill="#000"/>
  <circle cx="226.4" cy="143.2" r="6.5" fill="#000"/>
  <circle cx="194.5" cy="119.1" r="6.5" fill="#000"/>
  <circle cx="150.1" cy="109.8" r="6.5" fill="#000"/>
  <circle cx="124.4" cy="136.7" r="6.5" fill="#000"/>
  <circle cx="108.0" cy="166.9" r="6.5" fill="#000"/>
  <circle cx="96.9" cy="198.1" r="6.5" fill="#000"/>
  <circle cx="74.9" cy="226.7" r="6.5" fill="#000"/>
  <circle cx="60.0" cy="257.1" r="6.5" fill="#000"/>
  <circle cx="82.0" cy="272.0" r="6.5" fill="#000"/>
  <circle cx="106.9" cy="290.9" r="6.5" fill="#000"/>
  <circle cx="66.8" cy="308.8" r="6.5" fill="#000"/>
  <circle cx="90.8" cy="317.9" r="6.5" fill="#000"/>
  <circle cx="119.3" cy="333.0" r="6.5" fill="#000"/>
  <text x="313.6" y="545.3" font-family="Arial, sans-serif" font-size="16" fill="#111">1</text>
  <text x="304.8" y="552.4" font-family="Arial, sans-serif" font-size="16" fill="#111">2</text>
  <text x="335.0" y="595.3" font-family="Arial, sans-serif" font-size="16" fill="#111">3</text>
  <text x="330.6" y="589.9" font-family="Arial, sans-serif" font-size="16" fill="#111">4</text>
  <text x="351.7" y="552.3" font-family="Arial, sans-serif" font-size="16" fill="#111">5</text>
  <text x="400.7" y="604.6" font-family="Arial, sans-serif" font-size="16" fill="#111">6</text>
  <text x="418.0" y="595.3" font-family="Arial, sans-serif" font-size="16" fill="#111">7</text>
  <text x="470.6" y="582.6" font-family="Arial, sans-serif" font-size="16" fill="#111">8</text>
  <text x="510.3" y="523.7" font-family="Arial, sans-serif" font-size="16" fill="#111">9</text>
  <text x="506.4" y="495.4" font-family="Arial, sans-serif" font-size="16" fill="#111">10</text>
  <text x="554.6" y="499.3" font-family="Arial, sans-serif" font-size="16" fill="#111">11</text>
  <text x="569.3" y="484.4" font-family="Arial, sans-serif" font-size="16" fill="#111">12</text>
  <text x="633.3" y="444.1" font-family="Arial, sans-serif" font-size="16" fill="#111">13</text>
  <text x="663.7" y="455.1" font-family="Arial, sans-serif" font-size="16" fill="#111">14</text>
  <text x="653.8" y="425.8" font-family="Arial, sans-serif" font-size="16" fill="#111">15</text>
  <text x="695.2" y="416.8" font-family="Arial, sans-serif" font-size="16" fill="#111">16</text>
  <text x="680.9" y="410.1" font-family="Arial, sans-serif" font-size="16" fill="#111">17</text>
  <text x="641.7" y="440.6" font-family="Arial, sans-serif" font-size="16" fill="#111">18</text>
  <text x="672.0" y="504.0" font-family="Arial, sans-serif" font-size="16" fill="#111">19</text>
  <text x="670.2" y="530.6" font-family="Arial, sans-serif" font-size="16" fill="#111">20</text>
  <text x="723.4" y="510.8" font-family="Arial, sans-serif" font-size="16" fill="#111">21</text>
  <text x="712.7" y="566.4" font-family="Arial, sans-serif" font-size="16" fill="#111">22</text>
  <text x="665.1" y="592.0" font-family="Arial, sans-serif" font-size="16" fill="#111">23</text>
  <text x="706.5" y="590.0" font-family="Arial, sans-serif" font-size="16" fill="#111">24</text>
  <text x="722.6" y="571.4" font-family="Arial, sans-serif" font-size="16" fill="#111">25</text>
  <text x="718.6" y="557.7" font-family="Arial, sans-serif" font-size="16" fill="#111">26</text>
  <text x="759.4" y="610.2" font-family="Arial, sans-serif" font-size="16" fill="#111">27</text>
  <text x="779.1" y="604.7" font-family="Arial, sans-serif" font-size="16" fill="#111">28</text>
  <text x="840.2" y="553.9" font-family="Arial, sans-serif" font-size="16" fill="#111">29</text>
  <text x="896.4" y="575.4" font-family="Arial, sans-serif" font-size="16" fill="#111">30</text>
  <text x="892.7" y="548.5" font-family="Arial, sans-serif" font-size="16" fill="#111">31</text>
  <text x="916.7" y="523.5" font-family="Arial, sans-serif" font-size="16" fill="#111">32</text>
  <text x="928.7" y="467.3" font-family="Arial, sans-serif" font-size="16" fill="#111">33</text>
  <text x="855.7" y="463.2" font-family="Arial, sans-serif" font-size="16" fill="#111">34</text>
  <text x="894.5" y="473.8" font-family="Arial, sans-serif" font-size="16" fill="#111">35</text>
  <text x="915.7" y="468.3" font-family="Arial, sans-serif" font-size="16" fill="#111">36</text>
  <text x="940.0" y="407.1" font-family="Arial, sans-serif" font-size="16" fill="#111">37</text>
  <text x="907.4" y="450.9" font-family="Arial, sans-serif" font-size="16" fill="#111">38</text>
  <text x="839.6" y="438.8" font-family="Arial, sans-serif" font-size="16" fill="#111">39</text>
  <text x="886.7" y="427.4" font-family="Arial, sans-serif" font-size="16" fill="#111">40</text>
  <text x="939.7" y="379.7" font-family="Arial, sans-serif" font-size="16" fill="#111">41</text>
  <text x="899.6" y="352.1" font-family="Arial, sans-serif" font-size="16" fill="#111">42</text>
  <text x="932.3" y="355.0" font-family="Arial, sans-serif" font-size="16" fill="#111">43</text>
  <text x="905.6" y="329.3" font-family="Arial, sans-serif" font-size="16" fill="#111">44</text>
  <text x="878.0" y="277.5" font-family="Arial, sans-serif" font-size="16" fill="#111">45</text>
  <text x="863.2" y="338.8" font-family="Arial, sans-serif" font-size="16" fill="#111">46</text>
  <text x="820.9" y="367.2" font-family="Arial, sans-serif" font-size="16" fill="#111">47</text>
  <text x="817.9" y="402.4" font-family="Arial, sans-serif" font-size="16" fill="#111">48</text>
  <text x="802.1" y="351.8" font-family="Arial, sans-serif" font-size="16" fill="#111">49</text>
  <text x="776.7" y="321.3" font-family="Arial, sans-serif" font-size="16" fill="#111">50</text>
  <text x="777.1" y="374.5" font-family="Arial, sans-serif" font-size="16" fill="#111">51</text>
  <text x="718.3" y="389.0" font-family="Arial, sans-serif" font-size="16" fill="#111">52</text>
  <text x="730.5" y="318.6" font-family="Arial, sans-serif" font-size="16" fill="#111">53</text>
  <text x="729.2" y="341.0" font-family="Arial, sans-serif" font-size="16" fill="#111">54</text>
  <text x="679.3" y="369.2" font-family="Arial, sans-serif" font-size="16" fill="#111">55</text>
  <text x="666.3" y="364.4" font-family="Arial, sans-serif" font-size="16" fill="#111">56</text>
  <text x="681.4" y="302.0" font-family="Arial, sans-serif" font-size="16" fill="#111">57</text>
  <text x="623.9" y="321.6" font-family="Arial, sans-serif" font-size="16" fill="#111">58</text>
  <text x="622.1" y="379.5" font-family="Arial, sans-serif" font-size="16" fill="#111">59</text>
  <text x="560.7" y="401.0" font-family="Arial, sans-serif" font-size="16" fill="#111">60</text>
  <text x="534.7" y="376.7" font-family="Arial, sans-serif" font-size="16" fill="#111">61</text>
  <text x="503.6" y="423.8" font-family="Arial, sans-serif" font-size="16" fill="#111">62</text>
  <text x="428.9" y="431.9" font-family="Arial, sans-serif" font-size="16" fill="#111">63</text>
  <text x="416.3" y="454.1" font-family="Arial, sans-serif" font-size="16" fill="#111">64</text>
  <text x="428.2" y="451.8" font-family="Arial, sans-serif" font-size="16" fill="#111">65</text>
  <text x="433.6" y="472.7" font-family="Arial, sans-serif" font-size="16" fill="#111">66</text>
  <text x="443.7" y="524.8" font-family="Arial, sans-serif" font-size="16" fill="#111">67</text>
  <text x="390.6" y="534.4" font-family="Arial, sans-serif" font-size="16" fill="#111">68</text>
  <text x="424.0" y="519.8" font-family="Arial, sans-serif" font-size="16" fill="#111">69</text>
  <text x="394.5" y="547.3" font-family="Arial, sans-serif" font-size="16" fill="#111">70</text>
  <text x="323.6" y="556.1" font-family="Arial, sans-serif" font-size="16" fill="#111">71</text>
  <text x="95.6" y="340.5" font-family="Arial, sans-serif" font-size="16" fill="#111">72</text>
  <text x="103.7" y="363.1" font-family="Arial, sans-serif" font-size="16" fill="#111">73</text>
  <text x="171.1" y="411.8" font-family="Arial, sans-serif" font-size="16" fill="#111">74</text>
  <text x="190.6" y="423.2" font-family="Arial, sans-serif" font-size="16" fill="#111">75</text>
  <text x="254.4" y="389.4" font-family="Arial, sans-serif" font-size="16" fill="#111">76</text>
  <text x="316.4" y="430.2" font-family="Arial, sans-serif" font-size="16" fill="#111">77</text>
  <text x="337.1" y="430.9" font-family="Arial, sans-serif" font-size="16" fill="#111">78</text>
  <text x="399.7" y="435.5" font-family="Arial, sans-serif" font-size="16" fill="#111">79</text>
  <text x="457.9" y="397.2" font-family="Arial, sans-serif" font-size="16" fill="#111">80</text>
  <text x="478.8" y="388.7" font-family="Arial, sans-serif" font-size="16" fill="#111">81</text>
  <text x="550.0" y="408.9" font-family="Arial, sans-serif" font-size="16" fill="#111">82</text>
  <text x="564.3" y="390.9" font-family="Arial, sans-serif" font-size="16" fill="#111">83</text>
  <text x="601.3" y="329.0" font-family="Arial, sans-serif" font-size="16" fill="#111">84</text>
  <text x="581.6" y="344.6" font-family="Arial, sans-serif" font-size="16" fill="#111">85</text>
  <text x="594.9" y="334.5" font-family="Arial, sans-serif" font-size="16" fill="#111">86</text>
  <text x="646.1" y="330.7" font-family="Arial, sans-serif" font-size="16" fill="#111">87</text>
  <text x="613.5" y="284.0" font-family="Arial, sans-serif" font-size="16" fill="#111">88</text>
  <text x="598.1" y="262.1" font-family="Arial, sans-serif" font-size="16" fill="#111">89</text>
  <text x="666.3" y="287.0" font-family="Arial, sans-serif" font-size="16" fill="#111">90</text>
  <text x="633.3" y="255.4" font-family="Arial, sans-serif" font-size="16" fill="#111">91</text>
  <text x="626.5" y="187.2" font-family="Arial, sans-serif" font-size="16" fill="#111">92</text>
  <text x="615.0" y="197.2" font-family="Arial, sans-serif" font-size="16" fill="#111">93</text>
  <text x="575.3" y="166.2" font-family="Arial, sans-serif" font-size="16" fill="#111">94</text>
  <text x="563.3" y="145.3" font-family="Arial, sans-serif" font-size="16" fill="#111">95</text>
  <text x="532.3" y="100.9" font-family="Arial, sans-serif" font-size="16" fill="#111">96</text>
  <text x="470.3" y="122.1" font-family="Arial, sans-serif" font-size="16" fill="#111">97</text>
  <text x="462.6" y="164.5" font-family="Arial, sans-serif" font-size="16" fill="#111">98</text>
  <text x="413.5" y="187.9" font-family="Arial, sans-serif" font-size="16" fill="#111">99</text>
  <text x="401.2" y="139.1" font-family="Arial, sans-serif" font-size="16" fill="#111">100</text>
  <text x="400.7" y="151.6" font-family="Arial, sans-serif" font-size="16" fill="#111">101</text>
  <text x="348.6" y="169.9" font-family="Arial, sans-serif" font-size="16" fill="#111">102</text>
  <text x="334.7" y="197.6" font-family="Arial, sans-serif" font-size="16" fill="#111">103</text>
  <text x="333.3" y="133.8" font-family="Arial, sans-serif" font-size="16" fill="#111">104</text>
  <text x="285.8" y="138.3" font-family="Arial, sans-serif" font-size="16" fill="#111">105</text>
  <text x="290.7" y="196.7" font-family="Arial, sans-serif" font-size="16" fill="#111">106</text>
  <text x="245.8" y="171.1" font-family="Arial, sans-serif" font-size="16" fill="#111">107</text>
  <text x="226.4" y="123.2" font-family="Arial, sans-serif" font-size="16" fill="#111">108</text>
  <text x="208.5" y="135.1" font-family="Arial, sans-serif" font-size="16" fill="#111">109</text>
  <text x="136.1" y="125.8" font-family="Arial, sans-serif" font-size="16" fill="#111">110</text>
  <text x="124.4" y="158.7" font-family="Arial, sans-serif" font-size="16" fill="#111">111</text>
  <text x="118.0" y="154.9" font-family="Arial, sans-serif" font-size="16" fill="#111">112</text>
  <text x="80.9" y="186.1" font-family="Arial, sans-serif" font-size="16" fill="#111">113</text>
  <text x="84.9" y="246.7" font-family="Arial, sans-serif" font-size="16" fill="#111">114</text>
  <text x="44.0" y="277.1" font-family="Arial, sans-serif" font-size="16" fill="#111">115</text>
  <text x="82.0" y="252.0" font-family="Arial, sans-serif" font-size="16" fill="#111">116</text>
  <text x="120.9" y="306.9" font-family="Arial, sans-serif" font-size="16" fill="#111">117</text>
  <text x="52.8" y="324.8" font-family="Arial, sans-serif" font-size="16" fill="#111">118</text>
  <text x="90.8" y="339.9" font-family="Arial, sans-serif" font-size="16" fill="#111">119</text>
  <text x="129.3" y="321.0" font-family="Arial, sans-serif" font-size="16" fill="#111">120</text>
</svg>