<?xml version="1.0" encoding="UTF-8"?>
<svg viewBox="0 0 1000 700" xmlns="http://www.w3.org/2000/svg">
  <rect x="45" y="45" width="910" height="610" fill="none" stroke="#ccc" rx="14"/>
  <path d="M 86.2 346.9 L 127.1 387.2 L 195.1 413.6 L 269.4 426.4 L 345.3 430.2 L 421.1 426.2 L 495.3 413.5 L 563.8 388.0 L 603.1 348.5 L 591.3 313.6 L 648.7 297.2 L 600.9 265.3 L 658.4 243.8 L 637.5 186.8 L 602.1 136.0 L 571.4 81.5 L 509.5 72.2 L 458.8 103.6 L 414.1 138.3 L 389.9 91.1 L 330.3 105.9 L 355.7 115.3 L 357.3 125.9 L 323.4 108.3 L 297.2 124.4 L 260.1 112.4 L 211.2 86.2 L 147.4 60.0 L 111.5 112.2 L 92.5 170.4 L 60.0 224.5 L 84.5 257.9 L 75.7 294.3 L 95.6 311.8" fill="none" stroke="#bbb" stroke-width="1.5" stroke-dasharray="6 8" />
  <path d="M 318.1 618.0 L 336.9 632.7 L 352.5 614.0 L 404.2 640.0 L 469.1 609.4 L 512.7 560.4 L 547.6 507.2 L 616.9 489.0 L 655.1 454.1 L 692.6 402.6 L 668.7 448.0 L 662.2 507.0 L 703.2 555.1 L 704.2 592.9 L 700.8 633.9 L 714.6 633.7 L 741.3 626.6 L 800.1 636.6 L 870.9 615.4 L 913.4 568.4 L 935.2 511.0 L 870.7 498.8 L 925.9 473.7 L 934.0 447.6 L 863.1 444.7 L 911.0 413.9 L 924.3 371.3 L 940.0 318.0 L 883.2 287.1 L 841.1 335.3 L 818.7 391.3 L 800.8 342.0 L 767.1 362.7 L 732.1 346.8 L 712.5 329.9 L 669.7 348.1 L 657.7 308.7 L 617.2 359.5 L 559.1 397.8 L 489.3 421.5 L 415.2 435.4 L 417.3 493.6 L 449.8 535.4 L 413.3 555.5 L 389.5 575.5 L 321.1 583.5" fill="none" stroke="#bbb" stroke-width="1.5" stroke-dasharray="6 8" />
  <circle cx="86.2" cy="346.9" r="6.5" fill="#000"/>
  <circle cx="127.1" cy="387.2" r="6.5" fill="#000"/>
  <circle cx="195.1" cy="413.6" r="6.5" fill="#000"/>
  <circle cx="269.4" cy="426.4" r="6.5" fill="#000"/>
  <circle cx="345.3" cy="430.2" r="6.5" fill="#000"/>
  <circle cx="421.1" cy="426.2" r="6.5" fill="#000"/>
  <circle cx="495.3" cy="413.5" r="6.5" fill="#000"/>
  <circle cx="563.8" cy="388.0" r="6.5" fill="#000"/>
  <circle cx="603.1" cy="348.5" r="6.5" fill="#000"/>
  <circle cx="591.3" cy="313.6" r="6.5" fill="#000"/>
  <circle cx="648.7" cy="297.2" r="6.5" fill="#000"/>
  <circle cx="600.9" cy="265.3" r="6.5" fill="#000"/>
  <circle cx="658.4" cy="243.8" r="6.5" fill="#000"/>
  <circle cx="637.5" cy="186.8" r="6.5" fill="#000"/>
  <circle cx="602.1" cy="136.0" r="6.5" fill="#000"/>
  <circle cx="571.4" cy="81.5" r="6.5" fill="#000"/>
  <circle cx="509.5" cy="72.2" r="6.5" fill="#000"/>
  <circle cx="458.8" cy="103.6" r="6.5" fill="#000"/>
  <circle cx="414.1" cy="138.3" r="6.5" fill="#000"/>
  <circle cx="389.9" cy="91.1" r="6.5" fill="#000"/>
  <circle cx="330.3" cy="105.9" r="6.5" fill="#000"/>
  <circle cx="355.7" cy="115.3" r="6.5" fill="#000"/>
  <circle cx="357.3" cy="125.9" r="6.5" fill="#000"/>
  <circle cx="323.4" cy="108.3" r="6.5" fill="#000"/>
  <circle cx="297.2" cy="124.4" r="6.5" fill="#000"/>
  <circle cx="260.1" cy="112.4" r="6.5" fill="#000"/>
  <circle cx="211.2" cy="86.2" r="6.5" fill="#000"/>
  <circle cx="147.4" cy="60.0" r="6.5" fill="#000"/>
  <circle cx="111.5" cy="112.2" r="6.5" fill="#000"/>
  <circle cx="92.5" cy="170.4" r="6.5" fill="#000"/>
  <circle cx="60.0" cy="224.5" r="6.5" fill="#000"/>
  <circle cx="84.5" cy="257.9" r="6.5" fill="#000"/>
  <circle cx="75.7" cy="294.3" r="6.5" fill="#000"/>
  <circle cx="95.6" cy="311.8" r="6.5" fill="#000"/>
  <circle cx="318.1" cy="618.0" r="6.5" fill="#000"/>
  <circle cx="336.9" cy="632.7" r="6.5" fill="#000"/>
  <circle cx="352.5" cy="614.0" r="6.5" fill="#000"/>
  <circle cx="404.2" cy="640.0" r="6.5" fill="#000"/>
  <circle cx="469.1" cy="609.4" r="6.5" fill="#000"/>
  <circle cx="512.7" cy="560.4" r="6.5" fill="#000"/>
  <circle cx="547.6" cy="507.2" r="6.5" fill="#000"/>
  <circle cx="616.9" cy="489.0" r="6.5" fill="#000"/>
  <circle cx="655.1" cy="454.1" r="6.5" fill="#000"/>
  <circle cx="692.6" cy="402.6" r="6.5" fill="#000"/>
  <circle cx="668.7" cy="448.0" r="6.5" fill="#000"/>
  <circle cx="662.2" cy="507.0" r="6.5" fill="#000"/>
  <circle cx="703.2" cy="555.1" r="6.5" fill="#000"/>
  <circle cx="704.2" cy="592.9" r="6.5" fill="#000"/>
  <circle cx="700.8" cy="633.9" r="6.5" fill="#000"/>
  <circle cx="714.6" cy="633.7" r="6.5" fill="#000"/>
  <circle cx="741.3" cy="626.6" r="6.5" fill="#000"/>
  <circle cx="800.1" cy="636.6" r="6.5" fill="#000"/>
  <circle cx="870.9" cy="615.4" r="6.5" fill="#000"/>
  <circle cx="913.4" cy="568.4" r="6.5" fill="#000"/>
  <circle cx="935.2" cy="511.0" r="6.5" fill="#000"/>
  <circle cx="870.7" cy="498.8" r="6.5" fill="#000"/>
  <circle cx="925.9" cy="473.7" r="6.5" fill="#000"/>
  <circle cx="934.0" cy="447.6" r="6.5" fill="#000"/>
  <circle cx="863.1" cy="444.7" r="6.5" fill="#000"/>
  <circle cx="911.0" cy="413.9" r="6.5" fill="#000"/>
  <circle cx="924.3" cy="371.3" r="6.5" fill="#000"/>
  <circle cx="940.0" cy="318.0" r="6.5" fill="#000"/>
  <circle cx="883.2" cy="287.1" r="6.5" fill="#000"/>
  <circle cx="841.1" cy="335.3" r="6.5" fill="#000"/>
  <circle cx="818.7" cy="391.3" r="6.5" fill="#000"/>
  <circle cx="800.8" cy="342.0" r="6.5" fill="#000"/>
  <circle cx="767.1" cy="362.7" r="6.5" fill="#000"/>
  <circle cx="732.1" cy="346.8" r="6.5" fill="#000"/>
  <circle cx="712.5" cy="329.9" r="6.5" fill="#000"/>
  <circle cx="669.7" cy="348.1" r="6.5" fill="#000"/>
  <circle cx="657.7" cy="308.7" r="6.5" fill="#000"/>
  <circle cx="617.2" cy="359.5" r="6.5" fill="#000"/>
  <circle cx="559.1" cy="397.8" r="6.5" fill="#000"/>
  <circle cx="489.3" cy="421.5" r="6.5" fill="#000"/>
  <circle cx="415.2" cy="435.4" r="6.5" fill="#000"/>
  <circle cx="417.3" cy="493.6" r="6.5" fill="#000"/>
  <circle cx="449.8" cy="535.4" r="6.5" fill="#000"/>
  <circle cx="413.3" cy="555.5" r="6.5" fill="#000"/>
  <circle cx="389.5" cy="575.5" r="6.5" fill="#000"/>
  <circle cx="321.1" cy="583.5" r="6.5" fill="#000"/>
  <text x="96.2" y="334.9" font-family="Arial, sans-serif" font-size="16" fill="#111">1</text>
  <text x="111.1" y="375.2" font-family="Arial, sans-serif" font-size="16" fill="#111">2</text>
  <text x="205.1" y="433.6" font-family="Arial, sans-serif" font-size="16" fill="#111">3</text>
  <text x="253.4" y="446.4" font-family="Arial, sans-serif" font-size="16" fill="#111">4</text>
  <text x="345.3" y="410.2" font-family="Arial, sans-serif" font-size="16" fill="#111">5</text>
  <text x="435.1" y="442.2" font-family="Arial, sans-serif" font-size="16" fill="#111">6</text>
  <text x="481.3" y="429.5" font-family="Arial, sans-serif" font-size="16" fill="#111">7</text>
  <text x="563.8" y="410.0" font-family="Arial, sans-serif" font-size="16" fill="#111">8</text>
  <text x="613.1" y="336.5" font-family="Arial, sans-serif" font-size="16" fill="#111">9</text>
  <text x="575.3" y="301.6" font-family="Arial, sans-serif" font-size="16" fill="#111">10</text>
  <text x="658.7" y="317.2" font-family="Arial, sans-serif" font-size="16" fill="#111">11</text>
  <text x="584.9" y="285.3" font-family="Arial, sans-serif" font-size="16" fill="#111">12</text>
  <text x="658.4" y="223.8" font-family="Arial, sans-serif" font-size="16" fill="#111">13</text>
  <text x="651.5" y="202.8" font-family="Arial, sans-serif" font-size="16" fill="#111">14</text>
  <text x="588.1" y="152.0" font-family="Arial, sans-serif" font-size="16" fill="#111">15</text>
  <text x="571.4" y="103.5" font-family="Arial, sans-serif" font-size="16" fill="#111">16</text>
  <text x="519.5" y="60.2" font-family="Arial, sans-serif" font-size="16" fill="#111">17</text>
  <text x="442.8" y="91.6" font-family="Arial, sans-serif" font-size="16" fill="#111">18</text>
  <text x="424.1" y="158.3" font-family="Arial, sans-serif" font-size="16" fill="#111">19</text>
  <text x="373.9" y="111.1" font-family="Arial, sans-serif" font-size="16" fill="#111">20</text>
  <text x="330.3" y="85.9" font-family="Arial, sans-serif" font-size="16" fill="#111">21</text>
  <text x="369.7" y="131.3" font-family="Arial, sans-serif" font-size="16" fill="#111">22</text>
  <text x="343.3" y="141.9" font-family="Arial, sans-serif" font-size="16" fill="#111">23</text>
  <text x="323.4" y="130.3" font-family="Arial, sans-serif" font-size="16" fill="#111">24</text>
  <text x="307.2" y="112.4" font-family="Arial, sans-serif" font-size="16" fill="#111">25</text>
  <text x="244.1" y="100.4" font-family="Arial, sans-serif" font-size="16" fill="#111">26</text>
  <text x="221.2" y="106.2" font-family="Arial, sans-serif" font-size="16" fill="#111">27</text>
  <text x="131.4" y="80.0" font-family="Arial, sans-serif" font-size="16" fill="#111">28</text>
  <text x="111.5" y="92.2" font-family="Arial, sans-serif" font-size="16" fill="#111">29</text>
  <text x="106.5" y="186.4" font-family="Arial, sans-serif" font-size="16" fill="#111">30</text>
  <text x="46.0" y="240.5" font-family="Arial, sans-serif" font-size="16" fill="#111">31</text>
  <text x="84.5" y="279.9" font-family="Arial, sans-serif" font-size="16" fill="#111">32</text>
  <text x="85.7" y="282.3" font-family="Arial, sans-serif" font-size="16" fill="#111">33</text>
  <text x="79.6" y="299.8" font-family="Arial, sans-serif" font-size="16" fill="#111">34</text>
  <text x="328.1" y="606.0" font-family="Arial, sans-serif" font-size="16" fill="#111">35</text>
  <text x="320.9" y="620.7" font-family="Arial, sans-serif" font-size="16" fill="#111">36</text>
  <text x="362.5" y="634.0" font-family="Arial, sans-serif" font-size="16" fill="#111">37</text>
  <text x="388.2" y="660.0" font-family="Arial, sans-serif" font-size="16" fill="#111">38</text>
  <text x="469.1" y="589.4" font-family="Arial, sans-serif" font-size="16" fill="#111">39</text>
  <text x="526.7" y="576.4" font-family="Arial, sans-serif" font-size="16" fill="#111">40</text>
  <text x="533.6" y="523.2" font-family="Arial, sans-serif" font-size="16" fill="#111">41</text>
  <text x="616.9" y="511.0" font-family="Arial, sans-serif" font-size="16" fill="#111">42</text>
  <text x="665.1" y="442.1" font-family="Arial, sans-serif" font-size="16" fill="#111">43</text>
  <text x="676.6" y="390.6" font-family="Arial, sans-serif" font-size="16" fill="#111">44</text>
  <text x="678.7" y="468.0" font-family="Arial, sans-serif" font-size="16" fill="#111">45</text>
  <text x="646.2" y="527.0" font-family="Arial, sans-serif" font-size="16" fill="#111">46</text>
  <text x="703.2" y="535.1" font-family="Arial, sans-serif" font-size="16" fill="#111">47</text>
  <text x="718.2" y="608.9" font-family="Arial, sans-serif" font-size="16" fill="#111">48</text>
  <text x="686.8" y="649.9" font-family="Arial, sans-serif" font-size="16" fill="#111">49</text>
  <text x="714.6" y="655.7" font-family="Arial, sans-serif" font-size="16" fill="#111">50</text>
  <text x="751.3" y="614.6" font-family="Arial, sans-serif" font-size="16" fill="#111">51</text>
  <text x="784.1" y="624.6" font-family="Arial, sans-serif" font-size="16" fill="#111">52</text>
  <text x="880.9" y="635.4" font-family="Arial, sans-serif" font-size="16" fill="#111">53</text>
  <text x="897.4" y="588.4" font-family="Arial, sans-serif" font-size="16" fill="#111">54</text>
  <text x="935.2" y="491.0" font-family="Arial, sans-serif" font-size="16" fill="#111">55</text>
  <text x="884.7" y="514.8" font-family="Arial, sans-serif" font-size="16" fill="#111">56</text>
  <text x="911.9" y="489.7" font-family="Arial, sans-serif" font-size="16" fill="#111">57</text>
  <text x="934.0" y="469.6" font-family="Arial, sans-serif" font-size="16" fill="#111">58</text>
  <text x="873.1" y="432.7" font-family="Arial, sans-serif" font-size="16" fill="#111">59</text>
  <text x="895.0" y="401.9" font-family="Arial, sans-serif" font-size="16" fill="#111">60</text>
  <text x="934.3" y="391.3" font-family="Arial, sans-serif" font-size="16" fill="#111">61</text>
  <text x="924.0" y="338.0" font-family="Arial, sans-serif" font-size="16" fill="#111">62</text>
  <text x="883.2" y="267.1" font-family="Arial, sans-serif" font-size="16" fill="#111">63</text>
  <text x="855.1" y="351.3" font-family="Arial, sans-serif" font-size="16" fill="#111">64</text>
  <text x="804.7" y="407.3" font-family="Arial, sans-serif" font-size="16" fill="#111">65</text>
  <text x="800.8" y="364.0" font-family="Arial, sans-serif" font-size="16" fill="#111">66</text>
  <text x="777.1" y="350.7" font-family="Arial, sans-serif" font-size="16" fill="#111">67</text>
  <text x="716.1" y="334.8" font-family="Arial, sans-serif" font-size="16" fill="#111">68</text>
  <text x="722.5" y="349.9" font-family="Arial, sans-serif" font-size="16" fill="#111">69</text>
  <text x="653.7" y="368.1" font-family="Arial, sans-serif" font-size="16" fill="#111">70</text>
  <text x="657.7" y="288.7" font-family="Arial, sans-serif" font-size="16" fill="#111">71</text>
  <text x="631.2" y="375.5" font-family="Arial, sans-serif" font-size="16" fill="#111">72</text>
  <text x="545.1" y="413.8" font-family="Arial, sans-serif" font-size="16" fill="#111">73</text>
  <text x="489.3" y="443.5" font-family="Arial, sans-serif" font-size="16" fill="#111">74</text>
  <text x="425.2" y="423.4" font-family="Arial, sans-serif" font-size="16" fill="#111">75</text>
  <text x="401.3" y="481.6" font-family="Arial, sans-serif" font-size="16" fill="#111">76</text>
  <text x="459.8" y="555.4" font-family="Arial, sans-serif" font-size="16" fill="#111">77</text>
  <text x="397.3" y="575.5" font-family="Arial, sans-serif" font-size="16" fill="#111">78</text>
  <text x="389.5" y="555.5" font-family="Arial, sans-serif" font-size="16" fill="#111">79</text>
  <text x="335.1" y="599.5" font-family="Arial, sans-serif" font-size="16" fill="#111">80</text>
</svg>