<svg xmlns="http://www.w3.org/2000/svg" width="1000" height="1414" viewBox="0 0 1000 1414"><rect width="1000" height="1414" fill="#fff"/>
  <rect x="16" y="16" width="968" height="1382" rx="18" ry="18" fill="none" stroke="#222" stroke-width="3"/>
  <text x="40" y="60" font-family="Arial, sans-serif" font-size="28">Имя: ____________________________</text>
  <text x="600" y="60" font-family="Arial, sans-serif" font-size="28">Дата: _______________</text>
  <text x="40" y="110" font-family="Arial Black, Arial, sans-serif" font-size="38">СКОЛЬКО ВРЕМЕНИ ПОКАЗЫВАЮТ ЧАСЫ?</text>
  <text x="40" y="150" font-family="Arial, sans-serif" font-size="24" fill="#444">Запиши ответ под каждым циферблатом.</text>
  <g>
    <circle cx="964" cy="36" r="22" fill="#000"/>
    <text x="964" y="44" text-anchor="middle" font-family="Arial, sans-serif" font-size="22" fill="#fff">1</text>
  </g>
        <g>
          
    <g>
      <circle cx="193" cy="402" r="97.92" fill="#fff" stroke="#111" stroke-width="4"/>
      <line x1="193" y1="314.08" x2="193" y2="304.08" stroke="#222" stroke-width="2"/><line x1="238.95999999999998" y1="322.39494488413436" x2="241.95999999999998" y2="317.19879246142773" stroke="#222" stroke-width="2"/><line x1="272.6050551158656" y1="356.04" x2="277.8012075385722" y2="353.04" stroke="#222" stroke-width="2"/><line x1="280.92" y1="402" x2="290.92" y2="402" stroke="#222" stroke-width="2"/><line x1="272.60505511586564" y1="447.96" x2="277.80120753857227" y2="450.96" stroke="#222" stroke-width="2"/><line x1="238.95999999999998" y1="481.60505511586564" x2="241.95999999999998" y2="486.80120753857227" stroke="#222" stroke-width="2"/><line x1="193" y1="489.92" x2="193" y2="499.92" stroke="#222" stroke-width="2"/><line x1="147.03999999999996" y1="481.6050551158656" x2="144.03999999999996" y2="486.8012075385722" stroke="#222" stroke-width="2"/><line x1="113.39494488413442" y1="447.96000000000004" x2="108.19879246142779" y2="450.96000000000004" stroke="#222" stroke-width="2"/><line x1="105.08" y1="402" x2="95.08" y2="402" stroke="#222" stroke-width="2"/><line x1="113.3949448841344" y1="356.03999999999996" x2="108.19879246142777" y2="353.03999999999996" stroke="#222" stroke-width="2"/><line x1="147.03999999999996" y1="322.3949448841344" x2="144.03999999999996" y2="317.1987924614278" stroke="#222" stroke-width="2"/>
      <text x="193" y="325.62239999999997" text-anchor="middle" dominant-baseline="middle" font-family="Arial, sans-serif" font-size="21.5424" fill="#222">12</text><text x="269.37760000000003" y="402" text-anchor="middle" dominant-baseline="middle" font-family="Arial, sans-serif" font-size="21.5424" fill="#222">3</text><text x="193" y="478.37760000000003" text-anchor="middle" dominant-baseline="middle" font-family="Arial, sans-serif" font-size="21.5424" fill="#222">6</text><text x="116.6224" y="402" text-anchor="middle" dominant-baseline="middle" font-family="Arial, sans-serif" font-size="21.5424" fill="#222">9</text>
      <line x1="193" y1="402" x2="183.6480037435698" y2="348.96219365377453" stroke="#111" stroke-width="6" stroke-linecap="round"/>
      <line x1="193" y1="402" x2="123.4630098183708" y2="442.1472" stroke="#111" stroke-width="3" stroke-linecap="round"/>
      <circle cx="193" cy="402" r="4" fill="#111"/>
    </g>
          <rect x="85.9" y="513.9200000000001" width="214.2" height="40" rx="8" ry="8" fill="none" stroke="#888"/>
          <text x="52" y="296.08" font-family="Arial, sans-serif" font-size="18" fill="#000">1.</text>
        </g>
        <g>
          
    <g>
      <circle cx="499" cy="402" r="97.92" fill="#fff" stroke="#111" stroke-width="4"/>
      <line x1="499" y1="314.08" x2="499" y2="304.08" stroke="#222" stroke-width="2"/><line x1="544.96" y1="322.39494488413436" x2="547.96" y2="317.19879246142773" stroke="#222" stroke-width="2"/><line x1="578.6050551158656" y1="356.04" x2="583.8012075385723" y2="353.04" stroke="#222" stroke-width="2"/><line x1="586.92" y1="402" x2="596.92" y2="402" stroke="#222" stroke-width="2"/><line x1="578.6050551158656" y1="447.96" x2="583.8012075385723" y2="450.96" stroke="#222" stroke-width="2"/><line x1="544.96" y1="481.60505511586564" x2="547.96" y2="486.80120753857227" stroke="#222" stroke-width="2"/><line x1="499" y1="489.92" x2="499" y2="499.92" stroke="#222" stroke-width="2"/><line x1="453.03999999999996" y1="481.6050551158656" x2="450.03999999999996" y2="486.8012075385722" stroke="#222" stroke-width="2"/><line x1="419.3949448841344" y1="447.96000000000004" x2="414.1987924614278" y2="450.96000000000004" stroke="#222" stroke-width="2"/><line x1="411.08" y1="402" x2="401.08" y2="402" stroke="#222" stroke-width="2"/><line x1="419.3949448841344" y1="356.03999999999996" x2="414.1987924614278" y2="353.03999999999996" stroke="#222" stroke-width="2"/><line x1="453.03999999999996" y1="322.3949448841344" x2="450.03999999999996" y2="317.1987924614278" stroke="#222" stroke-width="2"/>
      <text x="499" y="325.62239999999997" text-anchor="middle" dominant-baseline="middle" font-family="Arial, sans-serif" font-size="21.5424" fill="#222">12</text><text x="575.3776" y="402" text-anchor="middle" dominant-baseline="middle" font-family="Arial, sans-serif" font-size="21.5424" fill="#222">3</text><text x="499" y="478.37760000000003" text-anchor="middle" dominant-baseline="middle" font-family="Arial, sans-serif" font-size="21.5424" fill="#222">6</text><text x="422.62239999999997" y="402" text-anchor="middle" dominant-baseline="middle" font-family="Arial, sans-serif" font-size="21.5424" fill="#222">9</text>
      <line x1="499" y1="402" x2="445.19525897848746" y2="404.3491657259476" stroke="#111" stroke-width="6" stroke-linecap="round"/>
      <line x1="499" y1="402" x2="458.85279999999995" y2="332.4630098183708" stroke="#111" stroke-width="3" stroke-linecap="round"/>
      <circle cx="499" cy="402" r="4" fill="#111"/>
    </g>
          <rect x="391.9" y="513.9200000000001" width="214.2" height="40" rx="8" ry="8" fill="none" stroke="#888"/>
          <text x="358" y="296.08" font-family="Arial, sans-serif" font-size="18" fill="#000">2.</text>
        </g>
        <g>
          
    <g>
      <circle cx="805" cy="402" r="97.92" fill="#fff" stroke="#111" stroke-width="4"/>
      <line x1="805" y1="314.08" x2="805" y2="304.08" stroke="#222" stroke-width="2"/><line x1="850.96" y1="322.39494488413436" x2="853.96" y2="317.19879246142773" stroke="#222" stroke-width="2"/><line x1="884.6050551158656" y1="356.04" x2="889.8012075385723" y2="353.04" stroke="#222" stroke-width="2"/><line x1="892.92" y1="402" x2="902.92" y2="402" stroke="#222" stroke-width="2"/><line x1="884.6050551158656" y1="447.96" x2="889.8012075385723" y2="450.96" stroke="#222" stroke-width="2"/><line x1="850.96" y1="481.60505511586564" x2="853.96" y2="486.80120753857227" stroke="#222" stroke-width="2"/><line x1="805" y1="489.92" x2="805" y2="499.92" stroke="#222" stroke-width="2"/><line x1="759.04" y1="481.6050551158656" x2="756.04" y2="486.8012075385722" stroke="#222" stroke-width="2"/><line x1="725.3949448841345" y1="447.96000000000004" x2="720.1987924614277" y2="450.96000000000004" stroke="#222" stroke-width="2"/><line x1="717.08" y1="402" x2="707.08" y2="402" stroke="#222" stroke-width="2"/><line x1="725.3949448841344" y1="356.03999999999996" x2="720.1987924614277" y2="353.03999999999996" stroke="#222" stroke-width="2"/><line x1="759.04" y1="322.3949448841344" x2="756.04" y2="317.1987924614278" stroke="#222" stroke-width="2"/>
      <text x="805" y="325.62239999999997" text-anchor="middle" dominant-baseline="middle" font-family="Arial, sans-serif" font-size="21.5424" fill="#222">12</text><text x="881.3776" y="402" text-anchor="middle" dominant-baseline="middle" font-family="Arial, sans-serif" font-size="21.5424" fill="#222">3</text><text x="805" y="478.37760000000003" text-anchor="middle" dominant-baseline="middle" font-family="Arial, sans-serif" font-size="21.5424" fill="#222">6</text><text x="728.6224" y="402" text-anchor="middle" dominant-baseline="middle" font-family="Arial, sans-serif" font-size="21.5424" fill="#222">9</text>
      <line x1="805" y1="402" x2="768.615413778651" y2="441.70680825124606" stroke="#111" stroke-width="6" stroke-linecap="round"/>
      <line x1="805" y1="402" x2="845.1472" y2="471.5369901816292" stroke="#111" stroke-width="3" stroke-linecap="round"/>
      <circle cx="805" cy="402" r="4" fill="#111"/>
    </g>
          <rect x="697.9" y="513.9200000000001" width="214.2" height="40" rx="8" ry="8" fill="none" stroke="#888"/>
          <text x="664" y="296.08" font-family="Arial, sans-serif" font-size="18" fill="#000">3.</text>
        </g>
        <g>
          
    <g>
      <circle cx="193" cy="786" r="97.92" fill="#fff" stroke="#111" stroke-width="4"/>
      <line x1="193" y1="698.08" x2="193" y2="688.08" stroke="#222" stroke-width="2"/><line x1="238.95999999999998" y1="706.3949448841344" x2="241.95999999999998" y2="701.1987924614277" stroke="#222" stroke-width="2"/><line x1="272.6050551158656" y1="740.04" x2="277.8012075385722" y2="737.04" stroke="#222" stroke-width="2"/><line x1="280.92" y1="786" x2="290.92" y2="786" stroke="#222" stroke-width="2"/><line x1="272.60505511586564" y1="831.96" x2="277.80120753857227" y2="834.96" stroke="#222" stroke-width="2"/><line x1="238.95999999999998" y1="865.6050551158656" x2="241.95999999999998" y2="870.8012075385723" stroke="#222" stroke-width="2"/><line x1="193" y1="873.92" x2="193" y2="883.92" stroke="#222" stroke-width="2"/><line x1="147.03999999999996" y1="865.6050551158656" x2="144.03999999999996" y2="870.8012075385723" stroke="#222" stroke-width="2"/><line x1="113.39494488413442" y1="831.96" x2="108.19879246142779" y2="834.96" stroke="#222" stroke-width="2"/><line x1="105.08" y1="786" x2="95.08" y2="786" stroke="#222" stroke-width="2"/><line x1="113.3949448841344" y1="740.04" x2="108.19879246142777" y2="737.04" stroke="#222" stroke-width="2"/><line x1="147.03999999999996" y1="706.3949448841345" x2="144.03999999999996" y2="701.1987924614277" stroke="#222" stroke-width="2"/>
      <text x="193" y="709.6224" text-anchor="middle" dominant-baseline="middle" font-family="Arial, sans-serif" font-size="21.5424" fill="#222">12</text><text x="269.37760000000003" y="786" text-anchor="middle" dominant-baseline="middle" font-family="Arial, sans-serif" font-size="21.5424" fill="#222">3</text><text x="193" y="862.3776" text-anchor="middle" dominant-baseline="middle" font-family="Arial, sans-serif" font-size="21.5424" fill="#222">6</text><text x="116.6224" y="786" text-anchor="middle" dominant-baseline="middle" font-family="Arial, sans-serif" font-size="21.5424" fill="#222">9</text>
      <line x1="193" y1="786" x2="185.97038139179688" y2="839.3952544541479" stroke="#111" stroke-width="6" stroke-linecap="round"/>
      <line x1="193" y1="786" x2="273.2944" y2="786" stroke="#111" stroke-width="3" stroke-linecap="round"/>
      <circle cx="193" cy="786" r="4" fill="#111"/>
    </g>
          <rect x="85.9" y="897.92" width="214.2" height="40" rx="8" ry="8" fill="none" stroke="#888"/>
          <text x="52" y="680.08" font-family="Arial, sans-serif" font-size="18" fill="#000">4.</text>
        </g>
        <g>
          
    <g>
      <circle cx="499" cy="786" r="97.92" fill="#fff" stroke="#111" stroke-width="4"/>
      <line x1="499" y1="698.08" x2="499" y2="688.08" stroke="#222" stroke-width="2"/><line x1="544.96" y1="706.3949448841344" x2="547.96" y2="701.1987924614277" stroke="#222" stroke-width="2"/><line x1="578.6050551158656" y1="740.04" x2="583.8012075385723" y2="737.04" stroke="#222" stroke-width="2"/><line x1="586.92" y1="786" x2="596.92" y2="786" stroke="#222" stroke-width="2"/><line x1="578.6050551158656" y1="831.96" x2="583.8012075385723" y2="834.96" stroke="#222" stroke-width="2"/><line x1="544.96" y1="865.6050551158656" x2="547.96" y2="870.8012075385723" stroke="#222" stroke-width="2"/><line x1="499" y1="873.92" x2="499" y2="883.92" stroke="#222" stroke-width="2"/><line x1="453.03999999999996" y1="865.6050551158656" x2="450.03999999999996" y2="870.8012075385723" stroke="#222" stroke-width="2"/><line x1="419.3949448841344" y1="831.96" x2="414.1987924614278" y2="834.96" stroke="#222" stroke-width="2"/><line x1="411.08" y1="786" x2="401.08" y2="786" stroke="#222" stroke-width="2"/><line x1="419.3949448841344" y1="740.04" x2="414.1987924614278" y2="737.04" stroke="#222" stroke-width="2"/><line x1="453.03999999999996" y1="706.3949448841345" x2="450.03999999999996" y2="701.1987924614277" stroke="#222" stroke-width="2"/>
      <text x="499" y="709.6224" text-anchor="middle" dominant-baseline="middle" font-family="Arial, sans-serif" font-size="21.5424" fill="#222">12</text><text x="575.3776" y="786" text-anchor="middle" dominant-baseline="middle" font-family="Arial, sans-serif" font-size="21.5424" fill="#222">3</text><text x="499" y="862.3776" text-anchor="middle" dominant-baseline="middle" font-family="Arial, sans-serif" font-size="21.5424" fill="#222">6</text><text x="422.62239999999997" y="786" text-anchor="middle" dominant-baseline="middle" font-family="Arial, sans-serif" font-size="21.5424" fill="#222">9</text>
      <line x1="499" y1="786" x2="523.8679333143859" y2="833.7708554316463" stroke="#111" stroke-width="6" stroke-linecap="round"/>
      <line x1="499" y1="786" x2="539.1472" y2="716.4630098183708" stroke="#111" stroke-width="3" stroke-linecap="round"/>
      <circle cx="499" cy="786" r="4" fill="#111"/>
    </g>
          <rect x="391.9" y="897.92" width="214.2" height="40" rx="8" ry="8" fill="none" stroke="#888"/>
          <text x="358" y="680.08" font-family="Arial, sans-serif" font-size="18" fill="#000">5.</text>
        </g>
        <g>
          
    <g>
      <circle cx="805" cy="786" r="97.92" fill="#fff" stroke="#111" stroke-width="4"/>
      <line x1="805" y1="698.08" x2="805" y2="688.08" stroke="#222" stroke-width="2"/><line x1="850.96" y1="706.3949448841344" x2="853.96" y2="701.1987924614277" stroke="#222" stroke-width="2"/><line x1="884.6050551158656" y1="740.04" x2="889.8012075385723" y2="737.04" stroke="#222" stroke-width="2"/><line x1="892.92" y1="786" x2="902.92" y2="786" stroke="#222" stroke-width="2"/><line x1="884.6050551158656" y1="831.96" x2="889.8012075385723" y2="834.96" stroke="#222" stroke-width="2"/><line x1="850.96" y1="865.6050551158656" x2="853.96" y2="870.8012075385723" stroke="#222" stroke-width="2"/><line x1="805" y1="873.92" x2="805" y2="883.92" stroke="#222" stroke-width="2"/><line x1="759.04" y1="865.6050551158656" x2="756.04" y2="870.8012075385723" stroke="#222" stroke-width="2"/><line x1="725.3949448841345" y1="831.96" x2="720.1987924614277" y2="834.96" stroke="#222" stroke-width="2"/><line x1="717.08" y1="786" x2="707.08" y2="786" stroke="#222" stroke-width="2"/><line x1="725.3949448841344" y1="740.04" x2="720.1987924614277" y2="737.04" stroke="#222" stroke-width="2"/><line x1="759.04" y1="706.3949448841345" x2="756.04" y2="701.1987924614277" stroke="#222" stroke-width="2"/>
      <text x="805" y="709.6224" text-anchor="middle" dominant-baseline="middle" font-family="Arial, sans-serif" font-size="21.5424" fill="#222">12</text><text x="881.3776" y="786" text-anchor="middle" dominant-baseline="middle" font-family="Arial, sans-serif" font-size="21.5424" fill="#222">3</text><text x="805" y="862.3776" text-anchor="middle" dominant-baseline="middle" font-family="Arial, sans-serif" font-size="21.5424" fill="#222">6</text><text x="728.6224" y="786" text-anchor="middle" dominant-baseline="middle" font-family="Arial, sans-serif" font-size="21.5424" fill="#222">9</text>
      <line x1="805" y1="786" x2="858.0378063462255" y2="795.3519962564302" stroke="#111" stroke-width="6" stroke-linecap="round"/>
      <line x1="805" y1="786" x2="874.5369901816292" y2="826.1472" stroke="#111" stroke-width="3" stroke-linecap="round"/>
      <circle cx="805" cy="786" r="4" fill="#111"/>
    </g>
          <rect x="697.9" y="897.92" width="214.2" height="40" rx="8" ry="8" fill="none" stroke="#888"/>
          <text x="664" y="680.08" font-family="Arial, sans-serif" font-size="18" fill="#000">6.</text>
        </g>
        <g>
          
    <g>
      <circle cx="193" cy="1170" r="97.92" fill="#fff" stroke="#111" stroke-width="4"/>
      <line x1="193" y1="1082.08" x2="193" y2="1072.08" stroke="#222" stroke-width="2"/><line x1="238.95999999999998" y1="1090.3949448841345" x2="241.95999999999998" y2="1085.1987924614277" stroke="#222" stroke-width="2"/><line x1="272.6050551158656" y1="1124.04" x2="277.8012075385722" y2="1121.04" stroke="#222" stroke-width="2"/><line x1="280.92" y1="1170" x2="290.92" y2="1170" stroke="#222" stroke-width="2"/><line x1="272.60505511586564" y1="1215.96" x2="277.80120753857227" y2="1218.96" stroke="#222" stroke-width="2"/><line x1="238.95999999999998" y1="1249.6050551158655" x2="241.95999999999998" y2="1254.8012075385723" stroke="#222" stroke-width="2"/><line x1="193" y1="1257.92" x2="193" y2="1267.92" stroke="#222" stroke-width="2"/><line x1="147.03999999999996" y1="1249.6050551158655" x2="144.03999999999996" y2="1254.8012075385723" stroke="#222" stroke-width="2"/><line x1="113.39494488413442" y1="1215.96" x2="108.19879246142779" y2="1218.96" stroke="#222" stroke-width="2"/><line x1="105.08" y1="1170" x2="95.08" y2="1170" stroke="#222" stroke-width="2"/><line x1="113.3949448841344" y1="1124.04" x2="108.19879246142777" y2="1121.04" stroke="#222" stroke-width="2"/><line x1="147.03999999999996" y1="1090.3949448841345" x2="144.03999999999996" y2="1085.1987924614277" stroke="#222" stroke-width="2"/>
      <text x="193" y="1093.6224" text-anchor="middle" dominant-baseline="middle" font-family="Arial, sans-serif" font-size="21.5424" fill="#222">12</text><text x="269.37760000000003" y="1170" text-anchor="middle" dominant-baseline="middle" font-family="Arial, sans-serif" font-size="21.5424" fill="#222">3</text><text x="193" y="1246.3776" text-anchor="middle" dominant-baseline="middle" font-family="Arial, sans-serif" font-size="21.5424" fill="#222">6</text><text x="116.6224" y="1170" text-anchor="middle" dominant-baseline="middle" font-family="Arial, sans-serif" font-size="21.5424" fill="#222">9</text>
      <line x1="193" y1="1170" x2="239.64066414621473" y2="1143.072" stroke="#111" stroke-width="6" stroke-linecap="round"/>
      <line x1="193" y1="1170" x2="193" y2="1089.7056" stroke="#111" stroke-width="3" stroke-linecap="round"/>
      <circle cx="193" cy="1170" r="4" fill="#111"/>
    </g>
          <rect x="85.9" y="1281.92" width="214.2" height="40" rx="8" ry="8" fill="none" stroke="#888"/>
          <text x="52" y="1064.08" font-family="Arial, sans-serif" font-size="18" fill="#000">7.</text>
        </g>
        <g>
          
    <g>
      <circle cx="499" cy="1170" r="97.92" fill="#fff" stroke="#111" stroke-width="4"/>
      <line x1="499" y1="1082.08" x2="499" y2="1072.08" stroke="#222" stroke-width="2"/><line x1="544.96" y1="1090.3949448841345" x2="547.96" y2="1085.1987924614277" stroke="#222" stroke-width="2"/><line x1="578.6050551158656" y1="1124.04" x2="583.8012075385723" y2="1121.04" stroke="#222" stroke-width="2"/><line x1="586.92" y1="1170" x2="596.92" y2="1170" stroke="#222" stroke-width="2"/><line x1="578.6050551158656" y1="1215.96" x2="583.8012075385723" y2="1218.96" stroke="#222" stroke-width="2"/><line x1="544.96" y1="1249.6050551158655" x2="547.96" y2="1254.8012075385723" stroke="#222" stroke-width="2"/><line x1="499" y1="1257.92" x2="499" y2="1267.92" stroke="#222" stroke-width="2"/><line x1="453.03999999999996" y1="1249.6050551158655" x2="450.03999999999996" y2="1254.8012075385723" stroke="#222" stroke-width="2"/><line x1="419.3949448841344" y1="1215.96" x2="414.1987924614278" y2="1218.96" stroke="#222" stroke-width="2"/><line x1="411.08" y1="1170" x2="401.08" y2="1170" stroke="#222" stroke-width="2"/><line x1="419.3949448841344" y1="1124.04" x2="414.1987924614278" y2="1121.04" stroke="#222" stroke-width="2"/><line x1="453.03999999999996" y1="1090.3949448841345" x2="450.03999999999996" y2="1085.1987924614277" stroke="#222" stroke-width="2"/>
      <text x="499" y="1093.6224" text-anchor="middle" dominant-baseline="middle" font-family="Arial, sans-serif" font-size="21.5424" fill="#222">12</text><text x="575.3776" y="1170" text-anchor="middle" dominant-baseline="middle" font-family="Arial, sans-serif" font-size="21.5424" fill="#222">3</text><text x="499" y="1246.3776" text-anchor="middle" dominant-baseline="middle" font-family="Arial, sans-serif" font-size="21.5424" fill="#222">6</text><text x="422.62239999999997" y="1170" text-anchor="middle" dominant-baseline="middle" font-family="Arial, sans-serif" font-size="21.5424" fill="#222">9</text>
      <line x1="499" y1="1170" x2="462.61541377865103" y2="1130.293191748754" stroke="#111" stroke-width="6" stroke-linecap="round"/>
      <line x1="499" y1="1170" x2="458.8528" y2="1239.5369901816293" stroke="#111" stroke-width="3" stroke-linecap="round"/>
      <circle cx="499" cy="1170" r="4" fill="#111"/>
    </g>
          <rect x="391.9" y="1281.92" width="214.2" height="40" rx="8" ry="8" fill="none" stroke="#888"/>
          <text x="358" y="1064.08" font-family="Arial, sans-serif" font-size="18" fill="#000">8.</text>
        </g>
        <g>
          
    <g>
      <circle cx="805" cy="1170" r="97.92" fill="#fff" stroke="#111" stroke-width="4"/>
      <line x1="805" y1="1082.08" x2="805" y2="1072.08" stroke="#222" stroke-width="2"/><line x1="850.96" y1="1090.3949448841345" x2="853.96" y2="1085.1987924614277" stroke="#222" stroke-width="2"/><line x1="884.6050551158656" y1="1124.04" x2="889.8012075385723" y2="1121.04" stroke="#222" stroke-width="2"/><line x1="892.92" y1="1170" x2="902.92" y2="1170" stroke="#222" stroke-width="2"/><line x1="884.6050551158656" y1="1215.96" x2="889.8012075385723" y2="1218.96" stroke="#222" stroke-width="2"/><line x1="850.96" y1="1249.6050551158655" x2="853.96" y2="1254.8012075385723" stroke="#222" stroke-width="2"/><line x1="805" y1="1257.92" x2="805" y2="1267.92" stroke="#222" stroke-width="2"/><line x1="759.04" y1="1249.6050551158655" x2="756.04" y2="1254.8012075385723" stroke="#222" stroke-width="2"/><line x1="725.3949448841345" y1="1215.96" x2="720.1987924614277" y2="1218.96" stroke="#222" stroke-width="2"/><line x1="717.08" y1="1170" x2="707.08" y2="1170" stroke="#222" stroke-width="2"/><line x1="725.3949448841344" y1="1124.04" x2="720.1987924614277" y2="1121.04" stroke="#222" stroke-width="2"/><line x1="759.04" y1="1090.3949448841345" x2="756.04" y2="1085.1987924614277" stroke="#222" stroke-width="2"/>
      <text x="805" y="1093.6224" text-anchor="middle" dominant-baseline="middle" font-family="Arial, sans-serif" font-size="21.5424" fill="#222">12</text><text x="881.3776" y="1170" text-anchor="middle" dominant-baseline="middle" font-family="Arial, sans-serif" font-size="21.5424" fill="#222">3</text><text x="805" y="1246.3776" text-anchor="middle" dominant-baseline="middle" font-family="Arial, sans-serif" font-size="21.5424" fill="#222">6</text><text x="728.6224" y="1170" text-anchor="middle" dominant-baseline="middle" font-family="Arial, sans-serif" font-size="21.5424" fill="#222">9</text>
      <line x1="805" y1="1170" x2="751.348938339571" y2="1165.306140318582" stroke="#111" stroke-width="6" stroke-linecap="round"/>
      <line x1="805" y1="1170" x2="874.5369901816292" y2="1129.8528000000001" stroke="#111" stroke-width="3" stroke-linecap="round"/>
      <circle cx="805" cy="1170" r="4" fill="#111"/>
    </g>
          <rect x="697.9" y="1281.92" width="214.2" height="40" rx="8" ry="8" fill="none" stroke="#888"/>
          <text x="664" y="1064.08" font-family="Arial, sans-serif" font-size="18" fill="#000">9.</text>
        </g></svg>